<?xml version="1.0" encoding="UTF-8"?>
<svg width="40px" height="40px" viewBox="0 0 40 40" version="1.1" xmlns="http://www.w3.org/2000/svg" xmlns:xlink="http://www.w3.org/1999/xlink">
    <title>amd</title>
    <g id="amd" stroke="none" stroke-width="1" fill="none" fill-rule="evenodd">
        <g transform="translate(0, 15.23)" fill="#000000" fill-rule="nonzero" id="Shape">
            <path d="M9.3944,8.90600665 L7.176,8.90600665 L6.49735,7.2691238 L2.80015,7.2691238 L2.18185,8.90600665 L0,8.90600665 L3.33335,0.638793304 L5.7214,0.638793304 L9.3944,8.90600665 Z M4.55775,2.6142726 L3.3456,5.82643893 L5.89125,5.82643893 L4.55775,2.6142726 Z M17.4528,0.638793304 L19.2468,0.638793304 L19.2468,8.90600665 L17.18585,8.90600665 L17.18585,3.74206078 L14.95545,6.33588359 L14.6404,6.33588359 L12.41015,3.74206078 L12.41015,8.90590665 L10.3492,8.90590665 L10.3492,0.638793304 L12.1432,0.638793304 L14.7978,3.70556116 L17.4528,0.638793304 Z M24.46875,0.638793304 C27.48695,0.638793304 29.0383,2.51742361 29.0383,4.78419985 C29.0383,7.16002495 27.5354,8.90600665 24.2383,8.90600665 L20.81985,8.90600665 L20.81985,0.638793304 L24.46875,0.638793304 Z M22.88065,7.39077253 L24.22595,7.39077253 C26.2988,7.39077253 26.9171,5.98433727 26.9171,4.77194998 C26.9171,3.35356485 26.1533,2.15382742 24.2017,2.15382742 L22.8806,2.15382742 L22.8806,7.39077253 L22.88065,7.39077253 Z M33.13845,2.59902276 L30.53985,0 L40,0 L40,9.46040083 L37.4014,6.86167807 L37.4014,2.59902276 L33.13845,2.59902276 Z M33.1354,3.1198173 L30.46,5.79508925 L30.46,9.54 L34.20445,9.54 L36.8797,6.86472804 L33.1354,6.86472804 L33.1354,3.1198173 Z"></path>
        </g>
    </g>
</svg>