<?xml version="1.0" encoding="UTF-8"?>
<svg width="40px" height="40px" viewBox="0 0 40 40" version="1.1" xmlns="http://www.w3.org/2000/svg" xmlns:xlink="http://www.w3.org/1999/xlink">
    <title>ibm</title>
    <g id="ibm" stroke="none" stroke-width="1" fill="none" fill-rule="evenodd">
        <g transform="translate(0, 11.977)" fill="#1F70C1" fill-rule="nonzero" id="Group">
            <g>
                <polygon id="Rectangle-path" points="0 14.9287172 7.77732 14.9287172 7.77732 16.04204 0 16.04204"></polygon>
                <polygon id="Rectangle-path_1_" points="0 12.7932319 7.77732 12.7932319 7.77732 13.9104747 0 13.9104747"></polygon>
                <polygon id="Rectangle-path_2_" points="2.21872 10.6616666 5.55468 10.6616666 5.55468 11.7789494 2.21872 11.7789494"></polygon>
                <polygon id="Rectangle-path_3_" points="2.21872 8.53014126 5.55468 8.53014126 5.55468 9.64742405 2.21872 9.64742405"></polygon>
                <polygon id="Rectangle-path_4_" points="2.21872 6.39857595 5.55468 6.39857595 5.55468 7.51585874 2.21872 7.51585874"></polygon>
                <polygon id="Rectangle-path_5_" points="2.21872 4.26309063 5.55468 4.26309063 5.55468 5.38037341 2.21872 5.38037341"></polygon>
                <rect id="Rectangle-path_6_" x="0" y="2.13152531" width="7.77732" height="1.11728279"></rect>
                <rect id="Rectangle-path_7_" x="0" y="0" width="7.77732" height="1.11728279"></rect>
            </g>
            <g transform="translate(8.8867, 0)">
                <path d="M0,13.9104747 L11.96116,13.9104747 C12.1632,13.5657938 12.31376,13.1893929 12.40492,12.7931919 L0,12.7931919 L0,13.9104747 Z" id="Shape_16_"></path>
                <path d="M11.03012,8.53014126 L2.22268,8.53014126 L2.22268,9.64742405 L11.9612,9.64742405 C11.7076,9.21950298 11.3946,8.84314204 11.03012,8.53014126 Z" id="Shape_17_"></path>
                <path d="M2.22268,6.39857595 L2.22268,7.51585874 L11.03012,7.51585874 C11.40256,7.20285796 11.71552,6.82645702 11.9612,6.39857595 L2.22268,6.39857595 Z" id="Shape_18_"></path>
                <path d="M11.9612,2.13152531 L0,2.13152531 L0,3.2488081 L12.40492,3.2488081 C12.30192,2.85260711 12.15136,2.47624617 11.9612,2.13152531 Z" id="Shape_19_"></path>
                <path d="M8.28448,0 L0,0 L0,1.11728279 L11.14104,1.11728279 C10.3962,0.427881067 9.38592,0 8.28448,0 Z" id="Shape_20_"></path>
                <rect id="Rectangle-path_8_" x="2.22268" y="4.26309063" width="3.332" height="1.11728279"></rect>
                <path d="M8.89064,5.38037341 L12.37716,5.38037341 C12.4762,5.02381252 12.52772,4.64741159 12.52772,4.26309063 L8.89064,4.26309063 L8.89064,5.38037341 L8.89064,5.38037341 Z" id="Shape_21_"></path>
                <polygon id="Rectangle-path_9_" points="2.22268 10.6616666 5.55468 10.6616666 5.55468 11.7789494 2.22268 11.7789494"></polygon>
                <path d="M8.89064,10.6616666 L8.89064,11.7789494 L12.52772,11.7789494 C12.52772,11.3946284 12.4762,11.0182675 12.37716,10.6616666 L8.89064,10.6616666 Z" id="Shape_22_"></path>
                <path d="M0,16.03412 L8.28448,16.046 C9.39384,16.046 10.3962,15.6181189 11.145,14.9287172 L0,14.9287172 L0,16.03412 Z" id="Shape_23_"></path>
            </g>
            <g transform="translate(22.2227, 0)">
                <polygon id="Rectangle-path_10_" points="0 14.9287172 5.55464 14.9287172 5.55464 16.04204 0 16.04204"></polygon>
                <polygon id="Rectangle-path_11_" points="0 12.7932319 5.55464 12.7932319 5.55464 13.9104747 0 13.9104747"></polygon>
                <polygon id="Rectangle-path_12_" points="2.21868 10.6616666 5.55464 10.6616666 5.55464 11.7789494 2.21868 11.7789494"></polygon>
                <polygon id="Rectangle-path_13_" points="2.21868 8.53014126 5.55464 8.53014126 5.55464 9.64742405 2.21868 9.64742405"></polygon>
                <polygon id="Shape_24_" points="7.09984 2.13152531 0 2.13152531 0 3.2488081 7.48412 3.2488081"></polygon>
                <polygon id="Shape_25_" points="6.36288 0 0 0 0 1.11728279 6.7472 1.11728279"></polygon>
                <polygon id="Rectangle-path_14_" points="12.21868 14.9287172 17.77732 14.9287172 17.77732 16.04204 12.21868 16.04204"></polygon>
                <polygon id="Rectangle-path_15_" points="12.21868 12.7932319 17.77732 12.7932319 17.77732 13.9104747 12.21868 13.9104747"></polygon>
                <polygon id="Rectangle-path_16_" points="12.21868 10.6616666 15.55464 10.6616666 15.55464 11.7789494 12.21868 11.7789494"></polygon>
                <polygon id="Rectangle-path_17_" points="12.21868 8.53014126 15.55464 8.53014126 15.55464 9.64742405 12.21868 9.64742405"></polygon>
                <polygon id="Shape_26_" points="12.21868 7.51585874 15.55464 7.51585874 15.55464 6.39857595 12.21868 6.39857595 12.21868 6.39857595 9.19968 6.39857595 8.88668 7.3019382 8.57368 6.39857595 5.55464 6.39857595 5.55464 6.39857595 2.21868 6.39857595 2.21868 7.51585874 5.55464 7.51585874 5.55464 6.48969618 5.90728 7.51585874 11.86608 7.51585874 12.21868 6.48969618"></polygon>
                <polygon id="Shape_27_" points="15.55464 4.26309063 9.9366 4.26309063 9.55228 5.38037341 15.55464 5.38037341"></polygon>
                <polygon id="Shape_28_" points="11.4144 0 11.03008 1.11728279 17.77732 1.11728279 17.77732 0"></polygon>
                <polygon id="Shape_29_" points="8.88668 16.03412 9.27096 14.9287172 8.50236 14.9287172"></polygon>
                <polygon id="Shape_30_" points="8.14976 13.9104747 9.6236 13.9104747 10.0198 12.7932319 7.75752 12.7932319"></polygon>
                <polygon id="Shape_31_" points="7.40092 11.7789494 10.3724 11.7789494 10.76464 10.6616666 7.00868 10.6616666"></polygon>
                <polygon id="Shape_32_" points="6.65608 9.64742405 11.1212 9.64742405 11.50156 8.53014126 6.27176 8.53014126"></polygon>
                <polygon id="Shape_33_" points="2.21868 5.38037341 8.22104 5.38037341 7.83676 4.26309063 2.21868 4.26309063"></polygon>
                <polygon id="Shape_34_" points="10.29316 3.2488081 17.77732 3.2488081 17.77732 2.13152531 10.67352 2.13152531"></polygon>
            </g>
        </g>
    </g>
</svg>