<?xml version="1.0" encoding="UTF-8"?>
<svg width="40px" height="40px" viewBox="0 0 40 40" version="1.1" xmlns="http://www.w3.org/2000/svg" xmlns:xlink="http://www.w3.org/1999/xlink">
    <title>intel</title>
    <g id="intel" stroke="none" stroke-width="1" fill="none" fill-rule="evenodd">
        <g transform="translate(0, 12.241)" fill-rule="nonzero">
            <rect id="Rectangle" fill="#04C7FD" x="0" y="0.216386454" width="2.89541473" height="2.89545684"></rect>
            <path d="M2.82328697,15.3016135 L2.82328697,4.87384728 L0.0824317362,4.87384728 L0.0824317362,15.3016135 L2.82328697,15.3016135 Z M21.0407007,15.4046547 L21.0407007,12.8492337 C20.638846,12.8492337 20.298815,12.8286255 20.0515198,12.787409 C19.7630088,12.7461926 19.5466255,12.6431514 19.4023699,12.4988938 C19.2581144,12.3546361 19.1653787,12.1485538 19.1138588,11.8806467 C19.072643,11.6230438 19.052035,11.283008 19.052035,10.8708433 L19.052035,7.22318592 L21.0407007,7.22318592 L21.0407007,4.87384728 L19.052035,4.87384728 L19.052035,0.803721116 L16.3008758,0.803721116 L16.3008758,10.8914515 C16.3008758,11.7466932 16.3730036,12.4679814 16.5172591,13.045012 C16.6615147,13.6117384 16.9088099,14.0754236 17.2488408,14.4257636 C17.5888717,14.7761036 18.0422463,15.0234024 18.5883565,15.1779641 C19.1447707,15.3325259 19.8454405,15.4046547 20.6800618,15.4046547 L21.0407007,15.4046547 L21.0407007,15.4046547 Z M36.7851623,15.3016135 L36.7851623,0 L34.0340031,0 L34.0340031,15.3016135 L36.7851623,15.3016135 Z M13.6527563,5.89395485 C12.8902628,5.0696255 11.8186502,4.65746082 10.4585265,4.65746082 C9.79907264,4.65746082 9.20144256,4.79141434 8.6553323,5.05932138 C8.11952602,5.32722842 7.6558475,5.69817663 7.29520866,6.172166 L7.14064915,6.36794422 L7.14064915,6.19277424 L7.14064915,4.87384728 L4.43070582,4.87384728 L4.43070582,15.3016135 L7.16125708,15.3016135 L7.16125708,9.74769456 L7.16125708,10.1289469 C7.16125708,10.0671222 7.16125708,10.0052975 7.16125708,9.94347278 C7.19216899,8.96458167 7.42916023,8.24329349 7.88253478,7.77960823 C8.36682123,7.28501062 8.95414735,7.03771182 9.6239052,7.03771182 C10.4173107,7.03771182 11.0252447,7.28501062 11.4270994,7.759 C11.8186502,8.23298938 12.0247295,8.90275697 12.0247295,9.75799867 L12.0247295,9.75799867 L12.0247295,9.77860691 L12.0247295,9.77860691 L12.0247295,9.77860691 L12.0247295,15.2913094 L14.7964967,15.2913094 L14.7964967,9.37674635 C14.8068006,7.89295352 14.4152499,6.7182842 13.6527563,5.89395485 Z M32.6120556,10.0671222 C32.6120556,9.31492165 32.4781041,8.6142417 32.2205049,7.95477822 C31.9526018,7.30561886 31.5816589,6.72858831 31.1179804,6.2339907 C30.6439979,5.73939309 30.0772798,5.35814077 29.4178259,5.07992961 C28.758372,4.80171846 28.0267903,4.66776494 27.2333849,4.66776494 C26.4811953,4.66776494 25.7702215,4.81202258 25.1107676,5.09023373 C24.4513138,5.378749 23.8742916,5.76000133 23.3900052,6.24429482 C22.9057187,6.72858831 22.514168,7.30561886 22.2359608,7.96508234 C21.9474498,8.62454582 21.8134982,9.33552988 21.8134982,10.0877304 C21.8134982,10.8399309 21.9474498,11.550915 22.2153529,12.2103785 C22.4832561,12.869842 22.8645028,13.4468725 23.3384853,13.931166 C23.8124678,14.4154595 24.3997939,14.8070159 25.0798557,15.0852271 C25.7599176,15.3737424 26.5121072,15.518 27.3158166,15.518 C29.6445131,15.518 31.0870685,14.456676 31.9526018,13.4674807 L29.9742401,11.9630797 C29.5620814,12.4576773 28.5729006,13.1274449 27.3364245,13.1274449 C26.563627,13.1274449 25.924781,12.9522749 25.4404946,12.5916308 C24.9562081,12.2412908 24.6264812,11.7466932 24.4513138,11.1387503 L24.4204019,11.0460133 L32.6120556,11.0460133 L32.6120556,10.0671222 L32.6120556,10.0671222 Z M24.4410098,9.10883931 C24.4410098,8.34633466 25.316847,7.01710359 27.202473,7.00679947 C29.0880989,7.00679947 29.9742401,8.33603054 29.9742401,9.09853519 L24.4410098,9.10883931 Z" id="Shape" fill="#0068B5"></path>
            <path d="M39.9175683,13.9414701 C39.8660484,13.8178207 39.7939207,13.7147795 39.701185,13.6220425 C39.6084493,13.5293054 39.5054096,13.4571766 39.381762,13.405656 C39.2581144,13.3541355 39.1241628,13.3232231 38.9902112,13.3232231 C38.8459557,13.3232231 38.7223081,13.3541355 38.5986605,13.405656 C38.4750129,13.4571766 38.3719732,13.5293054 38.2792375,13.6220425 C38.1865018,13.7147795 38.114374,13.8178207 38.0628542,13.9414701 C38.0113344,14.0651195 37.9804225,14.199073 37.9804225,14.3330266 C37.9804225,14.4772842 38.0113344,14.6009336 38.0628542,14.724583 C38.114374,14.8482324 38.1865018,14.9512736 38.2792375,15.0440106 C38.3719732,15.1367477 38.4750129,15.2088765 38.5986605,15.2603971 C38.7223081,15.3119177 38.8562597,15.34283 38.9902112,15.34283 C39.1344668,15.34283 39.2581144,15.3119177 39.381762,15.2603971 C39.5054096,15.2088765 39.6084493,15.1367477 39.701185,15.0440106 C39.7939207,14.9512736 39.8660484,14.8482324 39.9175683,14.724583 C39.9690881,14.6009336 40,14.4669801 40,14.3330266 C40,14.199073 39.9690881,14.0651195 39.9175683,13.9414701 Z M39.7527048,14.6627583 C39.7114889,14.7657995 39.6496651,14.8585365 39.5775374,14.9306653 C39.5054096,15.0027942 39.4126739,15.0646189 39.3096342,15.1058353 C39.2065945,15.1470518 39.1035549,15.16766 38.9799073,15.16766 C38.8665636,15.16766 38.75322,15.1470518 38.6501803,15.1058353 C38.5471406,15.0646189 38.4544049,15.0027942 38.3822772,14.9306653 C38.3101494,14.8585365 38.2483256,14.7657995 38.2071097,14.6627583 C38.1658939,14.5597171 38.1452859,14.456676 38.1452859,14.3330266 C38.1452859,14.2196813 38.1658939,14.106336 38.2071097,14.0032948 C38.2483256,13.9002537 38.3101494,13.8075166 38.3822772,13.7353878 C38.4544049,13.663259 38.5471406,13.6014343 38.6501803,13.5602178 C38.75322,13.5190013 38.8562597,13.4983931 38.9799073,13.4983931 C39.0932509,13.4983931 39.2065945,13.5190013 39.3096342,13.5602178 C39.4126739,13.6014343 39.5054096,13.663259 39.5775374,13.7353878 C39.6496651,13.8075166 39.7114889,13.9002537 39.7527048,14.0032948 C39.7939207,14.106336 39.8145286,14.2093772 39.8145286,14.3330266 C39.8248326,14.456676 39.7939207,14.5597171 39.7527048,14.6627583 Z M39.1756826,14.4154595 C39.2581144,14.4051554 39.3199382,14.374243 39.371458,14.3227224 C39.4229778,14.2712019 39.4538897,14.199073 39.4538897,14.0960319 C39.4538897,13.9826866 39.4229778,13.9002537 39.3508501,13.838429 C39.2890263,13.7766042 39.1756826,13.7456919 39.0417311,13.7456919 L38.5883565,13.7456919 L38.5883565,14.9100571 L38.8047398,14.9100571 L38.8047398,14.4360677 L38.9592993,14.4360677 L39.2478104,14.9100571 L39.4744977,14.9100571 L39.1756826,14.4154595 Z M39.062339,14.2505936 C39.0314271,14.2505936 39.0005152,14.2505936 38.9592993,14.2505936 L38.8047398,14.2505936 L38.8047398,13.9208619 L38.9592993,13.9208619 C38.9902112,13.9208619 39.0211231,13.9208619 39.062339,13.9208619 C39.0932509,13.9208619 39.1241628,13.931166 39.1550747,13.9414701 C39.1859866,13.9517742 39.2065945,13.9723825 39.2168985,13.9929907 C39.2272025,14.0135989 39.2375064,14.0445113 39.2375064,14.0857278 C39.2375064,14.1269442 39.2272025,14.1578566 39.2168985,14.1784648 C39.1962906,14.199073 39.1756826,14.2196813 39.1550747,14.2299854 C39.1241628,14.2402895 39.0932509,14.2505936 39.062339,14.2505936 Z" id="Shape" fill="#0068B5"></path>
        </g>
    </g>
</svg>