<?xml version="1.0" encoding="UTF-8"?>
<svg width="40px" height="40px" viewBox="0 0 40 40" version="1.1" xmlns="http://www.w3.org/2000/svg" xmlns:xlink="http://www.w3.org/1999/xlink">
    <title>qualcomm</title>
    <g id="qualcomm" stroke="none" stroke-width="1" fill="none" fill-rule="evenodd">
        <g transform="translate(0, 16.3275)" fill="#3253DC" fill-rule="nonzero" id="Shape">
            <path d="M10.7961737,2.10805073 C10.9033698,2.10805073 10.9952521,2.19482279 10.9952521,2.30711605 L10.9952521,6.10977415 C10.9952521,6.21696317 10.8982652,6.30373523 10.7961737,6.30373523 L10.2806118,6.30373523 C10.1836248,6.30373523 10.0866379,6.22717165 10.0866379,6.11998263 L10.0866379,5.76779013 C9.82630468,6.15060806 9.37710218,6.41602849 8.72371672,6.41602849 C7.63133792,6.41602849 6.95753417,5.69122655 6.95753417,4.61423211 L6.95753417,2.29690757 C6.95753417,2.18971855 7.05452107,2.10294649 7.15661255,2.10294649 L7.67217451,2.10294649 C7.77937056,2.10294649 7.86614832,2.18971855 7.86614832,2.29690757 L7.86614832,4.46620917 C7.86614832,5.16548992 8.23367763,5.62997568 8.95852712,5.62997568 C9.66806289,5.62997568 10.0866379,5.15017721 10.0866379,4.47641765 L10.0866379,2.29690757 C10.0866379,2.18971855 10.1836248,2.10294649 10.2806118,2.10294649 L10.7961737,2.10294649 M3.19035866,0 C1.42417611,0 0,1.37304031 0,3.20546213 C0,5.04298819 1.42417611,6.41092425 3.19035866,6.41092425 C3.49152852,6.41092425 3.78248923,6.37009034 4.05813622,6.29352675 L4.40524724,7.18676859 C4.44097926,7.28374913 4.51244329,7.345 4.64005764,7.345 L5.19135161,7.345 C5.32407053,7.345 5.42105744,7.25822794 5.35980255,7.08978805 L4.91060005,5.9209173 C5.79369133,5.36455525 6.38071732,4.37943711 6.38071732,3.20035789 C6.38071732,1.37304031 4.95654122,0 3.19035866,0 M4.57880275,5.06850938 L4.17554142,4.02214038 C4.1398094,3.93536831 4.06834537,3.85370049 3.91520815,3.85370049 L3.38943704,3.85370049 C3.25671812,3.85370049 3.15462664,3.94047255 3.21588153,4.10891244 L3.74675721,5.48195274 C3.5732017,5.5278909 3.38433247,5.54830785 3.19035866,5.54830785 C1.89890148,5.54830785 0.980078181,4.53256428 0.980078181,3.20546213 C0.980078181,1.87835997 1.89890148,0.8626164 3.19035866,0.8626164 C4.48181585,0.8626164 5.40063914,1.87835997 5.40063914,3.20546213 C5.40063914,3.98130646 5.08926014,4.64485754 4.57880275,5.06850938 M39.984127,6.08935719 C40.0300682,6.19654621 39.9739179,6.29863099 39.8463035,6.29863099 L39.2694867,6.29863099 C39.1622906,6.29863099 39.0755129,6.2475886 39.0397809,6.14039958 L37.9729249,3.27181723 L36.8907553,6.14039958 C36.8448141,6.25269284 36.7682455,6.29863099 36.6610495,6.29863099 L36.1454875,6.29863099 C36.0382914,6.29863099 35.9617228,6.25269284 35.9157817,6.14039958 L34.8234029,3.25650452 L33.7463378,6.14039958 C33.7003966,6.2475886 33.623828,6.29863099 33.516632,6.29863099 L32.9755471,6.29863099 C32.8683511,6.29863099 32.7917825,6.2475886 32.7458413,6.14039958 L31.6789854,3.25650452 L30.5763974,6.14039958 C30.5304562,6.25269284 30.4538876,6.29863099 30.3466916,6.29863099 L29.8311296,6.29863099 C29.7239336,6.29863099 29.647365,6.25269284 29.6014238,6.14039958 L28.5243587,3.25650452 L27.4472936,6.14039958 C27.4115616,6.2475886 27.3247839,6.29863099 27.2175878,6.29863099 L26.6560847,6.29863099 C26.5233658,6.29863099 26.47232,6.19144197 26.5182612,6.08935719 L27.9781693,2.27138638 C28.0241105,2.15909312 28.1006791,2.10294649 28.2078751,2.10294649 L28.8357377,2.10294649 C28.9429338,2.10294649 29.0195024,2.15398888 29.0654436,2.27138638 L30.1169858,5.0583009 L31.1583188,2.27138638 C31.20426,2.15909312 31.2808286,2.10294649 31.3880247,2.10294649 L32.0056781,2.10294649 C32.1128741,2.10294649 32.1894428,2.15398888 32.2353839,2.27138638 L33.2665078,5.0583009 L34.2976318,2.27138638 C34.3435729,2.15909312 34.4201415,2.10294649 34.5273376,2.10294649 L35.1500956,2.10294649 C35.2572916,2.10294649 35.3338602,2.15398888 35.3798014,2.27138638 L36.4262391,5.0583009 L37.4471538,2.27138638 C37.493095,2.15909312 37.5696636,2.10294649 37.6768597,2.10294649 L38.3047222,2.10294649 C38.4119183,2.10294649 38.4884869,2.15398888 38.5344281,2.27138638 L39.984127,6.08935719 M15.7935515,2.10805073 L15.2779896,2.10805073 C15.1707935,2.10805073 15.0789112,2.19482279 15.0789112,2.30711605 L15.0789112,2.65420431 C14.8185779,2.2611779 14.3081205,1.98044475 13.7057808,1.98044475 C12.5674608,1.98044475 11.5924872,2.87879083 11.5924872,4.19058026 C11.5924872,5.51768242 12.5725654,6.41092425 13.7006762,6.41092425 C14.3132251,6.41092425 14.8083688,6.1301911 15.0840158,5.7371647 L15.0840158,6.10466991 C15.0840158,6.21185893 15.1810027,6.29863099 15.2830941,6.29863099 L15.7986561,6.29863099 C15.9058521,6.29863099 15.9926299,6.21185893 15.9926299,6.10466991 L15.9926299,2.30711605 C15.9875253,2.19482279 15.9007476,2.10805073 15.7935515,2.10805073 M13.8027677,5.57382905 C13.0523954,5.57382905 12.5164151,4.96132036 12.5164151,4.20078874 C12.5164151,3.43004864 13.0472908,2.83795691 13.8027677,2.83795691 C14.5480355,2.83795691 15.0891203,3.43004864 15.0891203,4.20078874 C15.0840158,4.9664246 14.5429309,5.57382905 13.8027677,5.57382905 M21.944563,5.70653926 C22.0568636,5.84435372 21.9598767,5.95154274 21.8986219,5.99748089 C21.5413017,6.26800556 21.0665763,6.41602849 20.5510144,6.41602849 C19.249348,6.41602849 18.3815705,5.46153579 18.3815705,4.20589298 C18.3815705,2.95025017 19.249348,1.98554899 20.5510144,1.98554899 C21.0665763,1.98554899 21.5361971,2.13357192 21.8986219,2.40409659 C21.9598767,2.45003475 22.0466545,2.54191105 21.944563,2.69503822 L21.6995435,3.03702224 C21.6025566,3.16973245 21.4902559,3.13400278 21.393269,3.07275191 C21.1635632,2.93493746 20.8930208,2.81753996 20.5816418,2.81753996 C19.8210603,2.81753996 19.3157075,3.43004864 19.3157075,4.20589298 C19.3157075,4.98173732 19.8210603,5.58914177 20.5816418,5.58914177 C20.8981254,5.58914177 21.1482495,5.46664003 21.3779553,5.33392981 C21.4749422,5.28288742 21.5770337,5.23694927 21.6842298,5.37986796 L21.944563,5.70653926 L21.944563,5.70653926 Z M24.3743402,1.99065323 C23.1492424,1.99065323 22.1742688,2.95025017 22.1742688,4.20078874 C22.1742688,5.46153579 23.154347,6.41092425 24.3743402,6.41092425 C25.5994379,6.41092425 26.5744314,5.45643155 26.5744314,4.20078874 C26.5795161,2.95535441 25.5994379,1.99065323 24.3743402,1.99065323 M24.3743402,5.56872481 C23.6239678,5.56872481 23.0879876,4.9664246 23.0879876,4.20589298 C23.0879876,3.43515288 23.6188632,2.84306115 24.3743402,2.84306115 C25.1247125,2.84306115 25.6606928,3.43515288 25.6606928,4.20589298 C25.6606928,4.9664246 25.1298171,5.56872481 24.3743402,5.56872481 M17.6005707,0.112293259 C17.7128713,0.112293259 17.7945445,0.209273801 17.7945445,0.311358582 L17.7945445,6.09956567 C17.7945445,6.20675469 17.7179759,6.29863099 17.6005707,6.29863099 L17.0850087,6.29863099 C16.9778127,6.29863099 16.8859303,6.20165045 16.8859303,6.09956567 L16.8859303,0.316462821 C16.8859303,0.209273801 16.9829172,0.117397498 17.0850087,0.117397498 L17.6005707,0.117397498"></path>
        </g>
    </g>
</svg>