<?xml version="1.0" encoding="UTF-8"?>
<svg width="40px" height="40px" viewBox="0 0 40 40" version="1.1" xmlns="http://www.w3.org/2000/svg" xmlns:xlink="http://www.w3.org/1999/xlink">
    <title>Amazon</title>
    <g id="Amazon" stroke="none" stroke-width="1" fill="none" fill-rule="evenodd">
        <g transform="translate(1.7493, 14.5)" fill-rule="nonzero">
            <path d="M22.6447247,8.60233939 C20.5235696,10.1658243 17.4490847,11 14.8020105,11 C11.0903854,11 7.74897045,9.62718501 5.22106085,7.34392611 C5.02245112,7.16437867 5.20040474,6.91968792 5.43873763,7.05951094 C8.16684482,8.64682928 11.5400394,9.60176248 15.0244545,9.60176248 C17.3744074,9.60176248 19.9595163,9.11555614 22.3364817,8.1066009 C22.6955689,7.95406509 22.9958671,8.34175888 22.6447247,8.60233939" id="path8" fill="#FF9900"></path>
            <path d="M23.5265541,7.59338415 C23.2564434,7.24700266 21.7342962,7.42972708 21.0510778,7.51076137 C20.8429336,7.5361839 20.811157,7.35504858 20.9986438,7.22475711 C22.2109602,6.37151465 24.2002393,6.61779511 24.4322159,6.90379815 C24.6641913,7.19139091 24.3718384,9.18546917 23.2326103,10.137223 C23.0578336,10.2834024 22.8910011,10.2055469 22.9688571,10.0116994 C23.2246662,9.37295907 23.7982526,7.94135473 23.5265541,7.59338415" id="path10" fill="#FF9900"></path>
            <path d="M21.0987445,1.20121304 L21.0987445,0.371804022 C21.0987445,0.246280452 21.1940773,0.162068575 21.3084765,0.162068575 L25.0216894,0.162068575 C25.1408565,0.162068575 25.2361893,0.24786955 25.2361893,0.371804022 L25.2361893,1.08204526 C25.2346014,1.20121304 25.1345008,1.35692583 24.9565453,1.60320628 L23.0324115,4.35042597 C23.7474084,4.33294892 24.5021266,4.43940453 25.1503897,4.80485338 C25.2965667,4.88747616 25.3362887,5.00823304 25.3474109,5.12740204 L25.3474109,6.01242281 C25.3474109,6.13317969 25.2139447,6.27459121 25.0741233,6.20150241 C23.9317177,5.60248408 22.4143371,5.53733895 21.1511772,6.20785819 C21.0224781,6.27777001 20.8874234,6.13794638 20.8874234,6.0171895 L20.8874234,5.176658 C20.8874234,5.04160106 20.8890112,4.81120856 21.024066,4.6062398 L23.2532658,1.40936 L21.3132431,1.40936 C21.1940773,1.40936 21.0987445,1.32514873 21.0987445,1.20121304" id="path12" fill="#221F1F"></path>
            <path d="M7.55353704,6.37628134 L6.42384336,6.37628134 C6.31580041,6.36833767 6.23000023,6.28730338 6.22205548,6.18402355 L6.22205548,0.386105296 C6.22205548,0.2701151 6.31897734,0.177957734 6.43973226,0.177957734 L7.49315959,0.177957734 C7.60279342,0.182721391 7.69018086,0.266936299 7.69812621,0.371804022 L7.69812621,1.12971334 L7.71878172,1.12971334 C7.99365781,0.397226556 8.51004312,0.0556117541 9.20597354,0.0556117541 C9.91302503,0.0556117541 10.3547337,0.397226556 10.6725098,1.12971334 C10.9457975,0.397226556 11.5670494,0.0556117541 12.2327911,0.0556117541 C12.7062775,0.0556117541 13.2242525,0.251047139 13.5404396,0.689585388 C13.8979377,1.17737961 13.8248489,1.88603174 13.8248489,2.50729502 L13.823261,6.1665465 C13.823261,6.2825367 13.7263392,6.37628134 13.6055843,6.37628134 L12.4774784,6.37628134 C12.3646689,6.36833767 12.2741027,6.27777001 12.2741027,6.1665465 L12.2741027,3.09360117 C12.2741027,2.84890982 12.2963461,2.23876962 12.2423249,2.00678862 C12.1581144,1.61750756 11.9054823,1.50787193 11.5781723,1.50787193 C11.3048847,1.50787193 11.0188863,1.69059636 10.902898,1.98295579 C10.7869097,2.27531463 10.798032,2.76469673 10.798032,3.09360117 L10.798032,6.1665465 C10.798032,6.2825367 10.7011101,6.37628134 10.5803552,6.37628134 L9.45225057,6.37628134 C9.33785134,6.36833767 9.24887363,6.27777001 9.24887363,6.1665465 L9.24728455,3.09360117 C9.24728455,2.44691658 9.35373843,1.49516097 8.55135474,1.49516097 C7.73943602,1.49516097 7.77121382,2.42308193 7.77121382,3.09360117 L7.77121382,6.1665465 C7.77121382,6.2825367 7.67429196,6.37628134 7.55353704,6.37628134" id="path14" fill="#221F1F"></path>
            <path d="M28.4330169,0.0556117541 C30.1092858,0.0556117541 31.0165361,1.49516097 31.0165361,3.32558156 C31.0165361,5.09403401 30.0139518,6.49703822 28.4330169,6.49703822 C26.7869361,6.49703822 25.8908068,5.05748901 25.8908068,3.26361403 C25.8908068,1.45861597 26.7980583,0.0556117541 28.4330169,0.0556117541 M28.4425495,1.23934775 C27.6099771,1.23934775 27.5575365,2.37382596 27.5575365,3.08089021 C27.5575365,3.78954235 27.5464209,5.30218097 28.4330169,5.30218097 C29.30849,5.30218097 29.349801,4.08190178 29.349801,3.33829192 C29.349801,2.84890982 29.3291455,2.26419215 29.1813788,1.80023077 C29.0542682,1.39664964 28.8016373,1.23934775 28.4425495,1.23934775" id="path16" fill="#221F1F"></path>
            <path d="M33.1901251,6.37628134 L32.065198,6.37628134 C31.9523867,6.36833767 31.8618205,6.27777001 31.8618205,6.1665465 L31.8602326,0.367037335 C31.8697658,0.260580514 31.9635102,0.177957734 32.0779094,0.177957734 L33.1249823,0.177957734 C33.223492,0.182721391 33.304525,0.249458648 33.3267701,0.34002631 L33.3267701,1.22663557 L33.3474244,1.22663557 C33.6636128,0.433771561 34.1069092,0.0556117541 34.8870496,0.0556117541 C35.3939023,0.0556117541 35.8880448,0.238336176 36.205821,0.738841357 C36.5013526,1.20280214 36.5013526,1.98295579 36.5013526,2.54383881 L36.5013526,6.19355813 C36.4886418,6.29524705 36.3948975,6.37628134 36.283677,6.37628134 L35.1508046,6.37628134 C35.0475264,6.36833767 34.9617268,6.29207007 34.9506058,6.19355813 L34.9506058,3.0443452 C34.9506058,2.41037157 35.023694,1.4824494 34.2435531,1.4824494 C33.9686776,1.4824494 33.7160449,1.66676353 33.5905233,1.94641018 C33.4316362,2.30073716 33.4109806,2.65347443 33.4109806,3.0443452 L33.4109806,6.1665465 C33.4093928,6.2825367 33.3108812,6.37628134 33.1901263,6.37628134" id="path18" fill="#221F1F"></path>
            <g id="use28" transform="translate(14.81, 0)" fill="#221F1F">
                <path d="M3.32870488,3.60681792 L3.32870488,3.36212657 C2.51201949,3.36212657 1.64925774,3.53690611 1.64925774,4.49978297 C1.64925774,4.98757719 1.90188925,5.31807073 2.33565373,5.31807073 C2.65342991,5.31807073 2.93783922,5.12263535 3.11738372,4.80485338 C3.33982596,4.413982 3.32870488,4.04694466 3.32870488,3.60681792 M4.46793179,6.36039218 C4.3932545,6.42712641 4.28520974,6.4318931 4.20099924,6.38740442 C3.82602435,6.07597884 3.75929061,5.93138852 3.55273613,5.634263 C2.93307261,6.26664754 2.49454273,6.45572653 1.69056816,6.45572653 C0.740417157,6.45572653 0,5.86942038 0,4.69521957 C0,3.77841987 0.497319474,3.15397961 1.20437097,2.84890982 C1.81767875,2.57879472 2.67408542,2.53112845 3.32870488,2.45644995 L3.32870488,2.31027053 C3.32870488,2.04174453 3.34936039,1.72396317 3.19206107,1.49198399 C3.05382752,1.28383643 2.79007433,1.19803545 2.55809712,1.19803545 C2.12751139,1.19803545 1.74300146,1.41889337 1.64925774,1.87649837 C1.6301907,1.97818911 1.55551342,2.07829014 1.45382555,2.08305683 L0.357498125,1.96547693 C0.26534287,1.9448223 0.163654396,1.87014258 0.189076514,1.72873107 C0.441708628,0.400405357 1.64131299,0 2.71539704,0 C3.26514867,0 3.98332246,0.146179416 4.41708694,0.56247272 C4.96684033,1.07568947 4.91440642,1.76050817 4.91440642,2.50570592 L4.91440642,4.26621409 C4.91440642,4.79532061 5.13367287,5.02729979 5.34022736,5.31330405 C5.41331557,5.41499297 5.42920447,5.53733895 5.33704921,5.61360655 C5.10666168,5.80586495 4.69673085,6.16336891 4.47110872,6.36357098 L4.46793179,6.36038915" id="path30"></path>
            </g>
            <path d="M3.32870488,3.60681792 L3.32870488,3.36212657 C2.51201949,3.36212657 1.64925774,3.53690611 1.64925774,4.49978297 C1.64925774,4.98757719 1.90188925,5.31807073 2.33565373,5.31807073 C2.65342991,5.31807073 2.93783922,5.12263535 3.11738372,4.80485338 C3.33982596,4.413982 3.32870488,4.04694466 3.32870488,3.60681792 M4.46793179,6.36039218 C4.3932545,6.42712641 4.28520974,6.4318931 4.20099924,6.38740442 C3.82602435,6.07597884 3.75929061,5.93138852 3.55273613,5.634263 C2.93307261,6.26664754 2.49454273,6.45572653 1.69056816,6.45572653 C0.740417157,6.45572653 7.04776384e-16,5.86942038 7.04776384e-16,4.69521957 C7.04776384e-16,3.77841987 0.497319474,3.15397961 1.20437097,2.84890982 C1.81767875,2.57879472 2.67408542,2.53112845 3.32870488,2.45644995 L3.32870488,2.31027053 C3.32870488,2.04174453 3.34936039,1.72396317 3.19206107,1.49198399 C3.05382752,1.28383643 2.79007433,1.19803545 2.55809712,1.19803545 C2.12751139,1.19803545 1.74300146,1.41889337 1.64925774,1.87649837 C1.6301907,1.97818911 1.55551342,2.07829014 1.45382555,2.08305683 L0.357498125,1.96547693 C0.26534287,1.9448223 0.163654396,1.87014258 0.189076514,1.72873107 C0.441708628,0.400405357 1.64131299,0 2.71539704,0 C3.26514867,0 3.98332246,0.146179416 4.41708694,0.56247272 C4.96684033,1.07568947 4.91440642,1.76050817 4.91440642,2.50570592 L4.91440642,4.26621409 C4.91440642,4.79532061 5.13367287,5.02729979 5.34022736,5.31330405 C5.41331557,5.41499297 5.42920447,5.53733895 5.33704921,5.61360655 C5.10666168,5.80586495 4.69673085,6.16336891 4.47110872,6.36357098 L4.46793179,6.36038915" id="path30" fill="#221F1F"></path>
        </g>
    </g>
</svg>