<?xml version="1.0" encoding="UTF-8"?>
<svg width="40px" height="40px" viewBox="0 0 40 40" version="1.1" xmlns="http://www.w3.org/2000/svg" xmlns:xlink="http://www.w3.org/1999/xlink">
    <title>Amazon-a</title>
    <g id="Amazon-a" stroke="none" stroke-width="1" fill="none" fill-rule="evenodd">
        <g id="a" transform="translate(3.9889, 3.5)" fill-rule="nonzero">
            <path d="M28.0880382,27.1654462 C14.4675216,33.6476654 6.01447907,28.2241798 0.603418729,24.9300688 C0.268584537,24.7224639 -0.300517105,24.9786049 0.19325655,25.5457651 C1.99595104,27.731571 7.90376191,33 15.6151733,33 C23.3318913,33 27.9226272,28.7893985 28.4969061,28.054886 C29.067302,27.326586 28.6643879,26.9248367 28.0879088,27.1654462 L28.0880382,27.1654462 Z M31.9133279,25.0528975 C31.5475601,24.5765968 29.6892109,24.4878081 28.5196857,24.6314749 C27.3483484,24.7709999 25.5901777,25.4868747 25.743034,25.9167101 C25.8214683,26.0777205 25.9815726,26.0054988 26.786236,25.9331477 C27.5930997,25.8526425 29.853457,25.5673798 30.324451,26.1830761 C30.7976454,26.8030436 29.6035285,29.7563666 29.3854398,30.2326672 C29.1747285,30.7089679 29.465945,30.8317965 29.8617405,30.5145647 C30.2520999,30.1974624 30.9587852,29.376232 31.4330149,28.2140843 C31.904009,27.0455945 32.1912131,25.415559 31.9131985,25.0528975 L31.9133279,25.0528975 Z" id="Shape" fill="#FF9900"></path>
            <path d="M16.5593617,0 C18.6839474,0 21.4593048,0.564959896 23.1356761,2.17376895 C25.2602618,4.15701763 25.0575752,6.80346322 25.0575752,9.68327025 L25.0575752,16.4867335 C25.0575752,18.5314612 25.9049503,19.4278901 26.7031422,20.5332183 C26.9855575,20.9261663 27.0470365,21.3991018 26.6908464,21.6936834 C25.8005007,22.4366089 24.2162832,23.8182692 23.3444459,24.5919989 L23.3321501,24.5797031 C23.0436517,24.8375267 22.626112,24.8560351 22.3007262,24.6840233 C20.8516332,23.4805875 20.5936801,22.9218403 19.7954882,21.7735415 C17.4007831,24.2174298 15.7060328,24.9480595 12.599077,24.9480595 C8.9271612,24.9480595 6.06573316,22.6822662 6.06573316,18.1445963 C6.06573316,14.6017218 7.98776168,12.1885082 10.720019,11.0096641 C13.090262,9.96568549 16.3999045,9.78150727 18.9297341,9.49300884 L18.9297341,8.92804895 C18.9297341,7.89028298 19.0094627,6.6622556 18.4016616,5.76582668 C17.8673765,4.96142216 16.848119,4.6298237 15.9515606,4.6298237 C14.2876146,4.6298237 12.8016342,5.48328202 12.4393609,7.25167768 C12.3655861,7.64475516 12.0770877,8.03162003 11.6841396,8.04999902 L7.44726396,7.59570137 C7.09120333,7.51571392 6.69825528,7.2272155 6.79649229,6.6806346 C7.77277923,1.54745946 12.4085567,0 16.5593617,0 Z M18.9297341,12.9929128 C15.7734656,12.9929128 12.4393609,13.668276 12.4393609,17.389375 C12.4393609,19.2743867 13.4156479,20.5515973 15.0920191,20.5515973 C16.3200465,20.5515973 17.4191621,19.796376 18.1130338,18.5682192 C18.8652458,17.2465819 18.926373,15.9954008 18.9299015,14.5638306 Z" id="Shape" fill="#000000"></path>
        </g>
    </g>
</svg>