<?xml version="1.0" encoding="UTF-8"?>
<svg width="40px" height="40px" viewBox="0 0 40 40" version="1.1" xmlns="http://www.w3.org/2000/svg" xmlns:xlink="http://www.w3.org/1999/xlink">
    <title>Apple</title>
    <g id="Apple" stroke="none" stroke-width="1" fill="none" fill-rule="evenodd">
        <g transform="translate(6.159, 3)" fill="#000000" fill-rule="nonzero" id="Shape">
            <path d="M26.7979861,11.5917592 C26.6007671,11.7447745 23.1188311,13.7067707 23.1188311,18.0694069 C23.1188311,23.1155116 27.5494586,24.9006901 27.6820714,24.9448945 C27.6616695,25.0537054 26.9782035,27.389739 25.346046,29.769977 C23.8907055,31.8645865 22.3707589,33.9557956 20.0585357,33.9557956 C17.7463126,33.9557956 17.1512552,32.6126613 14.4819976,32.6126613 C11.8807465,32.6126613 10.9558573,34 8.84085318,34 C6.72584907,34 5.25010666,32.0618062 3.55334291,29.6815682 C1.58795324,26.8864886 0,22.5442544 0,18.4230423 C0,11.8127813 4.29801478,8.3070307 8.52802299,8.3070307 C10.7756399,8.3070307 12.6492207,9.78277828 14.0603569,9.78277828 C15.4034865,9.78277828 17.4980886,8.21862186 20.0551354,8.21862186 C21.0242289,8.21862186 24.5061649,8.3070307 26.7979861,11.5917592 Z M18.8412183,5.42014201 C19.8987203,4.16541654 20.6467925,2.42444244 20.6467925,0.683468347 C20.6467925,0.442044204 20.6263905,0.197219722 20.5821863,7.24826073e-16 C18.8616202,0.0646064606 16.8146227,1.14591459 15.5803036,2.57745775 C14.61121,3.67916792 13.7067228,5.42014201 13.7067228,7.18491849 C13.7067228,7.45014501 13.750927,7.71537154 13.771329,7.80038004 C13.8801395,7.82078208 14.0569566,7.84458446 14.2337736,7.84458446 C15.7775226,7.84458446 17.71911,6.81088109 18.8412183,5.42014201 Z"></path>
        </g>
    </g>
</svg>