<?xml version="1.0" encoding="UTF-8"?>
<svg width="319px" height="320px" viewBox="0 0 319 320" version="1.1" xmlns="http://www.w3.org/2000/svg" xmlns:xlink="http://www.w3.org/1999/xlink">
    <title>AWS</title>
    <g id="AWS" stroke="none" stroke-width="1" fill="none" fill-rule="evenodd">
        <g transform="translate(9.1645, 70)">
            <path d="M84.8262685,65.3726363 C84.8262685,69.0767519 85.2267134,72.080089 85.927492,74.2825362 C86.7283819,76.4849833 87.7294943,78.8876529 89.1310516,81.4905451 C89.6316077,82.2914349 89.8318302,83.0923248 89.8318302,83.7931034 C89.8318302,84.7942158 89.2311628,85.7953281 87.9297167,86.7964405 L81.622709,91.0011123 C80.7217078,91.6017798 79.8207067,91.9021135 79.0198168,91.9021135 C78.0187045,91.9021135 77.0175922,91.4015573 76.0164798,90.5005562 C74.6149225,88.9988877 73.4135877,87.3971079 72.4124754,85.7953281 C71.411363,84.0934372 70.4102507,82.1913237 69.3090271,79.8887653 C61.5003508,89.0989989 51.6894498,93.7041157 39.8763241,93.7041157 C31.4669804,93.7041157 24.7595276,91.3014461 19.8540771,86.4961068 C14.9486266,81.6907675 12.4458458,75.2836485 12.4458458,67.2747497 C12.4458458,58.7652948 15.4491828,51.8576196 21.5559681,46.6518354 C27.6627534,41.4460512 35.7717635,38.8431591 46.0832206,38.8431591 C49.4870026,38.8431591 52.9908958,39.1434928 56.6950115,39.6440489 C60.3991272,40.1446051 64.2033541,40.945495 68.2078035,41.8464961 L68.2078035,34.538376 C68.2078035,26.9299221 66.6060237,21.6240267 63.5025755,18.5205784 C60.299016,15.4171301 54.8930093,13.9154616 47.1844442,13.9154616 C43.680551,13.9154616 40.0765465,14.3159066 36.3724309,15.2169077 C32.6683152,16.1179088 29.0643107,17.2191324 25.5604175,18.6206897 C23.9586378,19.3214683 22.7573029,19.7219132 22.0565243,19.9221357 C21.3557457,20.1223582 20.8551895,20.2224694 20.4547445,20.2224694 C19.0531873,20.2224694 18.3524086,19.2213571 18.3524086,17.1190211 L18.3524086,12.2135706 C18.3524086,10.6117909 18.5526311,9.41045606 19.0531873,8.70967742 C19.5537434,8.00889878 20.4547445,7.30812013 21.8563018,6.60734149 C25.360195,4.80533927 29.5648669,3.30367075 34.4703174,2.10233593 C39.3757679,0.800889878 44.5815521,0.200222469 50.08767,0.200222469 C62.0009069,0.200222469 70.7105844,2.90322581 76.3168135,8.30923248 C81.8229314,13.7152392 84.626046,21.9243604 84.626046,32.9365962 L84.626046,65.3726363 L84.8262685,65.3726363 Z M44.1811072,80.5895439 C47.4847779,80.5895439 50.8885599,79.9888765 54.4925643,78.7875417 C58.0965688,77.5862069 61.3001283,75.3837597 64.0031316,72.3804227 C65.6049114,70.4783092 66.8062462,68.3759733 67.4069136,65.9733037 C68.007581,63.570634 68.408026,60.6674082 68.408026,57.2636263 L68.408026,53.0589544 C65.5048002,52.3581758 62.4013519,51.7575083 59.1977924,51.3570634 C55.9942329,50.9566185 52.8907846,50.756396 49.7873363,50.756396 C43.0798836,50.756396 38.1744331,52.057842 34.8707623,54.7608454 C31.5670916,57.4638487 29.9653118,61.2680756 29.9653118,66.2736374 C29.9653118,70.9788654 31.1666467,74.4827586 33.6694275,76.8854283 C36.0720972,79.3882091 39.5759904,80.5895439 44.1811072,80.5895439 Z M124.570429,91.4015573 C122.768426,91.4015573 121.567092,91.1012236 120.766202,90.4004449 C119.965312,89.7997775 119.264533,88.3982202 118.663866,86.4961068 L95.1377256,9.11012236 C94.5370582,7.10789766 94.2367245,5.80645161 94.2367245,5.10567297 C94.2367245,3.50389321 95.0376144,2.6028921 96.6393942,2.6028921 L106.450295,2.6028921 C108.352409,2.6028921 109.653855,2.90322581 110.354633,3.60400445 C111.155523,4.20467186 111.756191,5.60622914 112.356858,7.5083426 L129.175545,73.78198 L144.792898,7.5083426 C145.293454,5.50611791 145.894122,4.20467186 146.695012,3.60400445 C147.495901,3.00333704 148.897459,2.6028921 150.699461,2.6028921 L158.70836,2.6028921 C160.610473,2.6028921 161.911919,2.90322581 162.712809,3.60400445 C163.513699,4.20467186 164.214478,5.60622914 164.614923,7.5083426 L180.432498,74.5828699 L197.751741,7.5083426 C198.352409,5.50611791 199.053187,4.20467186 199.753966,3.60400445 C200.554856,3.00333704 201.856302,2.6028921 203.658304,2.6028921 L212.968649,2.6028921 C214.570429,2.6028921 215.47143,3.40378198 215.47143,5.10567297 C215.47143,5.60622914 215.371319,6.10678532 215.271207,6.70745273 C215.171096,7.30812013 214.970874,8.10901001 214.570429,9.21023359 L190.443621,86.596218 C189.842954,88.5984427 189.142175,89.8998888 188.341285,90.5005562 C187.540395,91.1012236 186.238949,91.5016685 184.537058,91.5016685 L175.927492,91.5016685 C174.025379,91.5016685 172.723933,91.2013348 171.923043,90.5005562 C171.122153,89.7997775 170.421374,88.4983315 170.020929,86.4961068 L154.503688,21.9243604 L139.086558,86.3959956 C138.586001,88.3982202 137.985334,89.6996663 137.184444,90.4004449 C136.383554,91.1012236 134.981997,91.4015573 133.179995,91.4015573 L124.570429,91.4015573 Z M253.213365,94.1045606 C248.007581,94.1045606 242.801797,93.5038932 237.796235,92.3025584 C232.790673,91.1012236 228.886335,89.7997775 226.283443,88.298109 C224.681663,87.3971079 223.58044,86.3959956 223.179995,85.4949944 C222.77955,84.5939933 222.579327,83.592881 222.579327,82.6918799 L222.579327,77.5862069 C222.579327,75.483871 223.380217,74.4827586 224.881886,74.4827586 C225.482553,74.4827586 226.083221,74.5828699 226.683888,74.7830923 C227.284555,74.9833148 228.185557,75.3837597 229.186669,75.7842047 C232.590451,77.2858732 236.294567,78.487208 240.198905,79.2880979 C244.203354,80.0889878 248.107692,80.4894327 252.112142,80.4894327 C258.419149,80.4894327 263.3246,79.3882091 266.728382,77.185762 C270.132164,74.9833148 271.934166,71.7797553 271.934166,67.6751947 C271.934166,64.8720801 271.033165,62.5695217 269.231163,60.6674082 C267.429161,58.7652948 264.025379,57.0634038 259.119928,55.461624 L244.603799,50.9566185 C237.295679,48.6540601 231.889672,45.2502781 228.586001,40.7452725 C225.282331,36.3403782 223.58044,31.4349277 223.58044,26.2291435 C223.58044,22.0244716 224.481441,18.320356 226.283443,15.1167964 C228.085445,11.9132369 230.488115,9.11012236 233.491452,6.90767519 C236.494789,4.6051168 239.898571,2.90322581 243.90302,1.70189099 C247.90747,0.500556174 252.112142,1.42266621e-14 256.517036,1.42266621e-14 C258.719483,1.42266621e-14 261.022042,0.100111235 263.224489,0.400444939 C265.527047,0.700778643 267.629383,1.10122358 269.731719,1.50166852 C271.733944,2.00222469 273.636057,2.50278087 275.438059,3.10344828 C277.240062,3.70411568 278.641619,4.30478309 279.642731,4.9054505 C281.044288,5.70634038 282.045401,6.50723026 282.646068,7.40823137 C283.246736,8.20912125 283.547069,9.31034483 283.547069,10.7119021 L283.547069,15.4171301 C283.547069,17.5194661 282.746179,18.6206897 281.244511,18.6206897 C280.443621,18.6206897 279.142175,18.2202447 277.440284,17.4193548 C271.733944,14.8164627 265.326825,13.5150167 258.218927,13.5150167 C252.512587,13.5150167 248.007581,14.4160178 244.904133,16.3181313 C241.800684,18.2202447 240.198905,21.1234705 240.198905,25.2280311 C240.198905,28.0311457 241.200017,30.4338154 243.202242,32.3359288 C245.204466,34.2380423 248.908582,36.1401557 254.214478,37.8420467 L268.430273,42.3470523 C275.638282,44.6496107 280.844066,47.8531702 283.947514,51.9577308 C287.050963,56.0622914 288.552631,60.7675195 288.552631,65.9733037 C288.552631,70.2780868 287.65163,74.1824249 285.949739,77.5862069 C284.147737,80.9899889 281.745067,83.9933259 278.641619,86.3959956 C275.538171,88.8987764 271.834055,90.7007786 267.529272,92.0022247 C263.024266,93.403782 258.319038,94.1045606 253.213365,94.1045606 Z" id="Shape" fill="#FFFFFF" fill-rule="nonzero"></path>
            <g id="Group" transform="translate(0, 112.2169)" fill="#FF9900">
                <path d="M272.134389,30.5416889 C239.197792,54.8687189 191.344622,67.7830682 150.198905,67.7830682 C92.5348335,67.7830682 40.5771027,46.4593752 1.33349872,11.0199981 C-1.76994956,8.21688355 1.03316501,4.41265663 4.7372807,6.61510379 C47.1844442,31.2424675 99.54262,46.1590415 153.702798,46.1590415 C190.243399,46.1590415 230.388004,38.5505877 267.329049,22.933235 C272.835167,20.4304542 277.540395,26.5372395 272.134389,30.5416889 Z" id="Path"></path>
                <path d="M285.849628,14.9243363 C281.644956,9.5183296 258.018705,12.3214442 247.306802,13.6228902 C244.103243,14.0233352 243.602687,11.2202206 246.505913,9.11788466 C265.326825,-4.09679832 296.261196,-0.292571405 299.865201,4.11232292 C303.469205,8.61732848 298.864088,39.5517 281.244511,54.3681627 C278.541508,56.6707211 275.938616,55.4693863 277.13995,52.4660493 C281.1444,42.555037 290.0543,20.2302317 285.849628,14.9243363 Z" id="Path"></path>
            </g>
        </g>
    </g>
</svg>