<?xml version="1.0" encoding="UTF-8"?>
<svg width="319px" height="320px" viewBox="0 0 319 320" version="1.1" xmlns="http://www.w3.org/2000/svg" xmlns:xlink="http://www.w3.org/1999/xlink">
    <title>Azure</title>
    <defs>
        <linearGradient x1="58.9717389%" y1="7.4114724%" x2="37.1905196%" y2="103.76182%" id="linearGradient-1">
            <stop stop-color="#114A8B" offset="0%"></stop>
            <stop stop-color="#0669BC" offset="100%"></stop>
        </linearGradient>
        <linearGradient x1="59.7188447%" y1="52.3127289%" x2="52.6914332%" y2="54.8636556%" id="linearGradient-2">
            <stop stop-color="#000000" stop-opacity="0.3" offset="0%"></stop>
            <stop stop-color="#000000" stop-opacity="0.2" offset="7.1%"></stop>
            <stop stop-color="#000000" stop-opacity="0.1" offset="32.1%"></stop>
            <stop stop-color="#000000" stop-opacity="0.05" offset="62.3%"></stop>
            <stop stop-color="#000000" stop-opacity="0" offset="100%"></stop>
        </linearGradient>
        <linearGradient x1="37.2789399%" y1="4.60005789%" x2="62.4733904%" y2="99.9794963%" id="linearGradient-3">
            <stop stop-color="#3CCBF4" offset="0%"></stop>
            <stop stop-color="#2892DF" offset="100%"></stop>
        </linearGradient>
    </defs>
    <g id="Azure" stroke="none" stroke-width="1" fill="none" fill-rule="evenodd">
        <g transform="translate(31.086, 39)" fill-rule="nonzero" id="Path">
            <path d="M85.6192851,0.00291872203 L161.616969,0.00291872203 L82.7239128,233.75461 C81.0612874,238.679755 76.4427879,241.997081 71.2445791,241.997081 L12.0995958,241.997081 C8.2027623,241.997081 4.54428516,240.120912 2.27131213,236.955647 C-0.00166089599,233.790381 -0.610814936,229.724044 0.634855633,226.031672 L74.1370326,8.24538975 C75.7989957,3.31807469 80.4192317,0 85.6192851,0 L85.6192851,0.00291872203 Z" fill="url(#linearGradient-1)"></path>
            <path d="M196.054971,156.787907 L75.5409379,156.787907 C73.2480706,156.785375 71.1872339,158.18627 70.3460297,160.319255 C69.5048255,162.452239 70.0546466,164.882723 71.7320057,166.445961 L149.171539,238.725194 C151.426187,240.828393 154.394898,241.997082 157.478222,241.997082 L225.717943,241.997082 L196.054971,156.787907 Z" fill="#0078D4"></path>
            <path d="M85.6192851,0.00282939009 C80.3572894,-0.0172742562 75.6939358,3.38769531 74.1107641,8.40591946 L0.725336016,225.833199 C-0.604584833,229.540207 -0.0444997256,233.662746 2.22622407,236.880573 C4.49694786,240.0984 8.19336647,242.007723 12.1317017,241.997126 L72.8031766,241.997126 C77.4035836,241.17512 81.2059057,237.941474 82.7560188,233.532787 L97.3904911,190.402832 L149.664803,239.160083 C151.855387,240.972026 154.60336,241.973913 157.446116,241.997126 L225.431908,241.997126 L195.614244,156.78791 L108.691783,156.808341 L161.891329,0.00282939009 L85.6192851,0.00282939009 Z" fill="url(#linearGradient-2)"></path>
            <path d="M182.687224,8.23371486 C181.027607,3.314337 176.414266,0.00291872203 171.222484,0.00291872203 L86.5240889,0.00291872203 C91.7155822,0.00291872203 96.3284528,3.31489866 97.9888291,8.23371486 L171.493925,226.028753 C172.740535,229.721801 172.131939,233.789224 169.858966,236.955647 C167.585993,240.122069 163.926958,242 160.029185,242 L244.730498,242 C248.627757,242 252.285921,240.12074 254.558212,236.954462 C256.830503,233.788183 257.438766,229.721313 256.192319,226.028753 L182.687224,8.23371486 Z" fill="url(#linearGradient-3)"></path>
        </g>
    </g>
</svg>