<?xml version="1.0" encoding="UTF-8"?>
<svg width="56px" height="56px" viewBox="0 0 56 56" version="1.1" xmlns="http://www.w3.org/2000/svg" xmlns:xlink="http://www.w3.org/1999/xlink">
    <title>carousel-amazon</title>
    <defs>
        <linearGradient x1="50%" y1="100%" x2="50%" y2="0%" id="linearGradient-1">
            <stop stop-color="#334155" offset="0%"></stop>
            <stop stop-color="#94A3B8" stop-opacity="0.601" offset="100%"></stop>
        </linearGradient>
        <radialGradient cx="48.744%" cy="50.721%" fx="48.744%" fy="50.721%" r="34.598%" id="radialGradient-2">
            <stop stop-color="#F1F5F9" offset="0%"></stop>
            <stop stop-color="#F1F5F9" stop-opacity="0" offset="100%"></stop>
        </radialGradient>
    </defs>
    <g id="carousel-amazon" stroke="none" stroke-width="1" fill="none" fill-rule="evenodd">
        <g id="carousel-icon-01-2" fill-rule="nonzero">
            <circle id="Oval" fill="url(#linearGradient-1)" cx="28" cy="28" r="28"></circle>
            <circle id="Oval" fill="#1E293B" cx="28" cy="28" r="27"></circle>
            <circle id="Oval" fill="url(#radialGradient-2)" opacity="0.079" cx="28" cy="28" r="27"></circle>
        </g>
        <g id="Group-Copy" transform="translate(11, 11)" fill="#CBD5E1" fill-rule="nonzero">
            <path d="M28.9456312,27.7717759 C14.9092487,34.6913648 6.19811508,28.9019446 0.621842505,25.3855726 C0.276785046,25.1639601 -0.30969259,25.4373835 0.199157122,26.0428113 C2.05689206,28.3760984 8.14508212,34 16.0919408,34 C24.0442681,34 28.7751699,29.5052999 29.3669828,28.7212281 C29.9547942,27.9437881 29.5395782,27.514932 28.9454978,27.7717759 L28.9456312,27.7717759 Z M32.8877159,25.5166888 C32.5107804,25.008251 30.5956915,24.9134716 29.3904579,25.0668319 C28.183357,25.215771 26.3715053,25.9799474 26.5290286,26.4387848 C26.6098577,26.6106589 26.7748503,26.5335642 27.604082,26.4563314 C28.4355811,26.3703944 30.7649523,26.0658844 31.2503269,26.7231231 C31.737969,27.3849211 30.507393,30.5375114 30.2826455,31.0459491 C30.0655007,31.5543869 30.3656087,31.685503 30.7734887,31.3468669 C31.1757668,31.0083689 31.9040288,30.1317283 32.3927379,28.8911679 C32.8781125,27.6438375 33.1740856,25.9038199 32.8875826,25.5166888 L32.8877159,25.5166888 Z" id="Shape"></path>
            <path d="M17.0612243,0 C19.3007279,0 22.2262032,0.588781556 23.9932486,2.2654264 C26.1581021,4.26340344 26.03062,6.90723181 26.0197158,9.79227128 L26.0191024,17.1819002 C26.0191024,19.3128444 26.9123116,20.2470714 27.7536774,21.399006 C28.0513683,21.8085228 28.1161727,22.3013997 27.7407165,22.6084024 C27.3496731,22.9310071 26.8316501,23.3691789 26.293875,23.8289342 L25.6459265,24.3849857 C25.1095063,24.8469704 24.5962251,25.2929451 24.2133107,25.628926 L24.2003498,25.6161117 C23.8962466,25.8848065 23.4561224,25.9040954 23.1131366,25.7248306 C21.5856628,24.4706517 21.3137572,23.8883447 20.4723914,22.6916277 C17.9481577,25.2385631 16.1617392,26 12.8867295,26 C9.01620142,26 6,23.638669 6,18.9096672 C6,15.2174066 8.02599019,12.7024394 10.9060341,11.473889 C13.4044825,10.3858908 16.8931421,10.1939467 19.5598091,9.89328367 L19.5598091,9.30450211 C19.5598091,8.22297851 19.6438501,6.94317109 19.0031734,6.00894404 C18.439989,5.17062162 17.3656003,4.82504124 16.4205475,4.82504124 C14.6665994,4.82504124 13.1002429,5.71448582 12.7183745,7.55744628 C12.6406092,7.96709796 12.336506,8.37027507 11.9223036,8.38942901 L7.45625719,7.9159758 C7.08093739,7.83261567 6.66673495,7.53195264 6.77028556,6.96232504 C7.79937943,1.61270843 12.685904,0 17.0612243,0 Z M19.5598091,13.5407618 C16.2328194,13.5407618 12.7183745,14.2446019 12.7183745,18.1226019 C12.7183745,20.0870955 13.7474683,21.4181599 15.5145138,21.4181599 C16.8089646,21.4181599 17.9675309,20.6310946 18.6989338,19.3511522 C19.6051039,17.7770215 19.5598091,16.2987954 19.5598091,14.5262459 Z" id="Combined-Shape"></path>
        </g>
    </g>
</svg>