<?xml version="1.0" encoding="UTF-8"?>
<svg width="56px" height="56px" viewBox="0 0 56 56" version="1.1" xmlns="http://www.w3.org/2000/svg" xmlns:xlink="http://www.w3.org/1999/xlink">
    <title>carousel-apple</title>
    <defs>
        <linearGradient x1="50%" y1="100%" x2="50%" y2="0%" id="linearGradient-1">
            <stop stop-color="#334155" offset="0%"></stop>
            <stop stop-color="#94A3B8" stop-opacity="0.601" offset="100%"></stop>
        </linearGradient>
        <radialGradient cx="48.744%" cy="50.721%" fx="48.744%" fy="50.721%" r="34.598%" id="radialGradient-2">
            <stop stop-color="#F1F5F9" offset="0%"></stop>
            <stop stop-color="#F1F5F9" stop-opacity="0" offset="100%"></stop>
        </radialGradient>
    </defs>
    <g id="carousel-apple" stroke="none" stroke-width="1" fill="none" fill-rule="evenodd">
        <g id="carousel-icon-01-2" fill-rule="nonzero">
            <circle id="Oval" fill="url(#linearGradient-1)" cx="28" cy="28" r="28"></circle>
            <circle id="Oval" fill="#1E293B" cx="28" cy="28" r="27"></circle>
            <circle id="Oval" fill="url(#radialGradient-2)" opacity="0.079" cx="28" cy="28" r="27"></circle>
        </g>
        <g id="Apple" transform="translate(14.25, 10.5)" fill="#CBD5E1" fill-rule="nonzero">
            <path d="M26.6217295,11.9326933 C26.4258076,12.090209 22.9667731,14.109911 22.9667731,18.6008601 C22.9667731,23.7953795 27.3682594,25.6330633 27.5,25.6785679 C27.4797322,25.7905791 26.8007616,28.1953195 25.1793391,30.6455646 C23.7335708,32.8017802 22.2236212,34.9544954 19.9266061,34.9544954 C17.629591,34.9544954 17.0384474,33.5718572 14.3867461,33.5718572 C11.8026041,33.5718572 10.8837981,35 8.78270483,35 C6.6816116,35 5.21557548,33.0048005 3.52997175,30.5545555 C1.57750891,27.6772677 -1.77635684e-15,23.2073207 -1.77635684e-15,18.9648965 C-1.77635684e-15,12.160216 4.26974573,8.55135514 8.4719322,8.55135514 C10.704766,8.55135514 12.5660238,10.0705071 13.9678786,10.0705071 C15.3021742,10.0705071 17.3829996,8.46034603 19.9232281,8.46034603 C20.8859477,8.46034603 24.3449822,8.55135514 26.6217295,11.9326933 Z M18.7172952,5.57955796 C19.7678418,4.28792879 20.5109937,2.49574957 20.5109937,0.703570357 C20.5109937,0.455045505 20.490726,0.203020302 20.4468124,0 C18.737563,0.0665066507 16.704029,1.17961796 15.4778283,2.65326533 C14.5151087,3.78737874 13.6165704,5.57955796 13.6165704,7.39623962 C13.6165704,7.66926693 13.660484,7.94229423 13.6807518,8.02980298 C13.7888466,8.05080508 13.9645007,8.07530753 14.1401548,8.07530753 C15.6737502,8.07530753 17.6025673,7.01120112 18.7172952,5.57955796 Z" id="Shape"></path>
        </g>
    </g>
</svg>