<?xml version="1.0" encoding="UTF-8"?>
<svg width="319px" height="320px" viewBox="0 0 319 320" version="1.1" xmlns="http://www.w3.org/2000/svg" xmlns:xlink="http://www.w3.org/1999/xlink">
    <title>Google Cloud</title>
    <g id="Google-Cloud" stroke="none" stroke-width="1" fill="none" fill-rule="evenodd">
        <g id="GoogleCloud" transform="translate(47.6073, 70)" fill-rule="nonzero">
            <path d="M142.403159,49.7377333 L149.570304,49.8630331 L169.041884,30.3914529 L169.981633,22.1404647 C154.507114,8.37628788 134.145906,-1.42108547e-14 111.861346,-1.42108547e-14 C71.5148288,-1.42108547e-14 37.4583584,27.4531739 27.371729,64.6421379 C29.5018247,63.1573359 34.0439404,64.2662386 34.0439404,64.2662386 L72.9620408,57.8634217 C72.9620408,57.8634217 74.9668367,54.5429785 75.9692347,54.7497231 C93.3096273,35.7798373 122.419435,33.5839065 142.409424,49.7377333 L142.403159,49.7377333 Z" id="Path" fill="#EA4335"></path>
            <path d="M196.469998,64.7110527 C191.996173,48.2509521 182.816637,33.4539575 170.056812,22.1341998 L142.478339,49.7126734 C153.942245,58.9262044 160.612027,72.8394407 160.615477,87.546931 L160.615477,92.4148261 C174.035079,92.4148261 184.923627,103.334699 184.923627,116.722976 C184.923627,130.111254 174.003754,141.031127 160.615477,141.031127 L111.986646,141.031127 L107.118751,145.917817 L107.118751,175.100127 L111.986646,179.942962 L160.615477,179.942962 C195.481727,179.849915 223.716493,151.595548 223.785343,116.729241 C223.760283,95.2027454 212.909325,76.1321244 196.407348,64.7110527 L196.469998,64.7110527 Z" id="Path" fill="#4285F4"></path>
            <path d="M63.2387807,179.986817 L111.855081,179.986817 L111.855081,141.068717 L63.2387807,141.068717 C59.7863652,141.070366 56.3740356,140.328926 53.2335962,138.894766 L46.2168105,141.043657 L26.7452303,160.515237 L25.0411538,167.093473 C35.9964563,175.505088 49.4330251,180.044172 63.2450457,180 L63.2387807,179.986817 Z" id="Path" fill="#34A853"></path>
            <path d="M63.2387807,53.5155206 C28.335854,53.5707141 0.0551935041,81.8513748 0,116.754301 C0,136.543482 9.27591673,155.188467 25.0599488,167.124798 L53.2523911,138.932356 C44.5293967,135.007646 38.9189686,126.33208 38.9181004,116.766831 C38.9181004,103.347229 49.8379731,92.458681 63.2262507,92.458681 C72.7868035,92.4754311 81.4545079,98.0807752 85.3917754,106.792972 L113.584218,78.6005293 C102.019051,63.3766104 83.7628788,53.5405805 63.2137208,53.5405805 L63.2387807,53.5155206 Z" id="Path" fill="#FBBC05"></path>
        </g>
    </g>
</svg>