<?xml version="1.0" encoding="UTF-8"?>
<svg width="40px" height="40px" viewBox="0 0 40 40" version="1.1" xmlns="http://www.w3.org/2000/svg" xmlns:xlink="http://www.w3.org/1999/xlink">
    <title>Google</title>
    <g id="Google" stroke="none" stroke-width="1" fill="none" fill-rule="evenodd">
        <g transform="translate(3.2213, 14.5)" fill-rule="nonzero">
            <path d="M8.25097929,3.88548034 L4.33549354,3.88548034 L4.33549354,5.04730902 L7.11261123,5.04730902 C6.9750063,6.67355642 5.61991047,7.37159185 4.34018461,7.37159185 C3.52123362,7.37518995 2.73518899,7.0495402 2.15872061,6.467835 C1.58225224,5.8861298 1.26372196,5.09717034 1.27472204,4.27828164 C1.27472204,2.51943252 2.63638538,1.16526881 4.34393747,1.16526881 C5.66119195,1.16526881 6.43740885,2.00497541 6.43740885,2.00497541 L7.2505289,1.16245416 C7.2505289,1.16245416 6.20598238,0 4.30140504,0 C1.87611814,0 -4.4408921e-16,2.04688255 -4.4408921e-16,4.2576408 C-4.4408921e-16,6.42398999 1.76478324,8.53654792 4.36270178,8.53654792 C6.64788185,8.53654792 8.32071998,6.97097205 8.32071998,4.65607142 C8.32071998,4.16757172 8.24972834,3.88548034 8.24972834,3.88548034 L8.25097929,3.88548034 Z" id="Path" fill="#4885ED"></path>
            <g id="A-link" transform="translate(8.7004, 3.0436)" fill="#DB3236">
                <path d="M2.75835339,0.000312739886 C1.15150308,0.000312739886 0,1.25658886 0,2.72114975 C0,4.20791516 1.11647637,5.48733403 2.77711769,5.48733403 C4.28013883,5.48733403 5.51139022,4.33864043 5.51139022,2.75304921 C5.51139022,0.939157877 4.07904798,0 2.75835339,0 L2.75835339,0.000312739886 Z M2.77399031,1.07801439 C3.56396771,1.07801439 4.31266363,1.71694197 4.31266363,2.74616894 C4.31266363,3.75319137 3.56709509,4.41057061 2.77023745,4.41057061 C1.89456971,4.41057061 1.20654505,3.70940778 1.20654505,2.7380377 C1.20654505,1.78730845 1.88831494,1.07801439 2.77649222,1.07801439 L2.77399031,1.07801439 Z" id="A"></path>
            </g>
            <g id="A-link" transform="translate(14.699, 3.0436)" fill="#F4C20D">
                <path d="M2.75835339,0.000312739886 C1.15150308,0.000312739886 0,1.25658886 0,2.72114975 C0,4.20791516 1.11647637,5.48733403 2.77711769,5.48733403 C4.28013883,5.48733403 5.51139022,4.33864043 5.51139022,2.75304921 C5.51139022,0.939157877 4.07904798,0 2.75835339,0 L2.75835339,0.000312739886 Z M2.77399031,1.07801439 C3.56396771,1.07801439 4.31266363,1.71694197 4.31266363,2.74616894 C4.31266363,3.75319137 3.56709509,4.41057061 2.77023745,4.41057061 C1.89456971,4.41057061 1.20654505,3.70940778 1.20654505,2.7380377 C1.20654505,1.78730845 1.88831494,1.07801439 2.77649222,1.07801439 L2.77399031,1.07801439 Z" id="A"></path>
            </g>
            <path d="M23.3409237,3.04702471 C21.866049,3.04702471 20.7070402,4.33864043 20.7070402,5.78850254 C20.7070402,7.43976914 22.0508774,8.53498422 23.3152791,8.53498422 C24.0971253,8.53498422 24.5130675,8.22443351 24.8164238,7.86822278 L24.8164238,8.40926279 C24.8164238,9.35592642 24.2416105,9.92292383 23.3740739,9.92292383 C22.5359348,9.92292383 22.1156143,9.29963324 21.9667508,8.94623717 L20.9121966,9.38407301 C21.2862318,10.1753049 22.0393061,11 23.3828306,11 C24.8527015,11 25.9666759,10.0764791 25.9666759,8.13936827 L25.9666759,3.21183863 L24.8208021,3.21183863 L24.8208021,3.6765701 C24.4674077,3.29502744 23.9832885,3.04702471 23.3415491,3.04702471 L23.3409237,3.04702471 Z M23.4472547,4.12284991 C24.1703061,4.12284991 24.9127472,4.74019845 24.9127472,5.7944446 C24.9127472,6.86620419 24.1715571,7.45665709 23.4313051,7.45665709 C22.6450805,7.45665709 21.9135852,6.81866773 21.9135852,5.80445228 C21.9135852,4.75114434 22.6735397,4.12253717 23.4472547,4.12253717 L23.4472547,4.12284991 Z" id="Shape" fill="#4885ED"></path>
            <path d="M31.0880813,3.04045717 C29.6970205,3.04045717 28.5289423,4.14755636 28.5289423,5.78005857 C28.5289423,7.50825918 29.8308726,8.53310778 31.2184932,8.53310778 C32.3793784,8.53310778 33.0949241,7.89824581 33.517121,7.32905922 L32.5685852,6.69795013 C32.32246,7.07949279 31.9108962,7.45321696 31.2244352,7.45321696 C30.4532221,7.45321696 30.0985767,7.03101811 29.8787216,6.62132886 L33.5574643,5.09515822 L33.3698212,4.64794018 C33.0145503,3.7722685 32.1854806,3.04045717 31.088394,3.04045717 L31.0880813,3.04045717 Z M31.1359302,4.09564154 C31.63725,4.09564154 31.9978375,4.36209593 32.1510793,4.68171609 L29.6942059,5.70844113 C29.5878748,4.91345634 30.3415745,4.09564154 31.1328029,4.09564154 L31.1359302,4.09564154 Z" id="Shape" fill="#DB3236"></path>
            <polygon id="Path" fill="#3CBA54" points="26.7722902 8.37048304 27.9807117 8.37048304 27.9807117 0.283967816 26.7722902 0.283967816"></polygon>
        </g>
    </g>
</svg>