<?xml version="1.0" encoding="UTF-8"?>
<svg width="40px" height="40px" viewBox="0 0 40 40" version="1.1" xmlns="http://www.w3.org/2000/svg" xmlns:xlink="http://www.w3.org/1999/xlink">
    <title>Artboard</title>
    <g id="Artboard" stroke="none" stroke-width="1" fill="none" fill-rule="evenodd">
        <g id="GoogleCloud" transform="translate(2.14, 5.6345)" fill-rule="nonzero">
            <path d="M22.73,7.939 L23.874,7.959 L26.982,4.851 L27.132,3.534 C24.662,1.337 21.412,-1.77635684e-15 17.855,-1.77635684e-15 C11.415,-1.77635684e-15 5.979,4.382 4.369,10.318 C4.709,10.081 5.434,10.258 5.434,10.258 L11.646,9.236 C11.646,9.236 11.966,8.706 12.126,8.739 C14.8938257,5.71107908 19.540253,5.36057066 22.731,7.939 L22.73,7.939 Z" id="Path" fill="#EA4335"></path>
            <path d="M31.36,10.329 C30.6459003,7.70168408 29.180688,5.33982855 27.144,3.533 L22.742,7.935 C24.5718371,9.40563845 25.6364494,11.6264309 25.637,13.974 L25.637,14.751 C27.779,14.751 29.517,16.494 29.517,18.631 C29.517,20.768 27.774,22.511 25.637,22.511 L17.875,22.511 L17.098,23.291 L17.098,27.949 L17.875,28.722 L25.637,28.722 C31.2022549,28.7071481 35.7090104,24.1972639 35.72,18.632 C35.716,15.196 33.984,12.152 31.35,10.329 L31.36,10.329 Z" id="Path" fill="#4285F4"></path>
            <path d="M10.094,28.729 L17.854,28.729 L17.854,22.517 L10.094,22.517 C9.54293494,22.5172632 8.99826829,22.3989167 8.497,22.17 L7.377,22.513 L4.269,25.621 L3.997,26.671 C5.74565521,28.0136388 7.89036331,28.7381549 10.095,28.7310525 L10.094,28.729 Z" id="Path" fill="#34A853"></path>
            <path d="M10.094,8.542 C4.52289097,8.55080984 0.0088098351,13.064891 0,18.636 C0,21.7946945 1.48059628,24.7707557 4,26.676 L8.5,22.176 C7.10765966,21.5495486 6.21213858,20.1647786 6.212,18.638 C6.212,16.496 7.955,14.758 10.092,14.758 C11.6180291,14.7606736 13.0015442,15.6553832 13.63,17.046 L18.13,12.546 C16.284,10.116 13.37,8.546 10.09,8.546 L10.094,8.542 Z" id="Path" fill="#FBBC05"></path>
        </g>
    </g>
</svg>