<?xml version="1.0" encoding="UTF-8"?>
<svg width="92px" height="28px" viewBox="0 0 92 28" version="1.1" xmlns="http://www.w3.org/2000/svg" xmlns:xlink="http://www.w3.org/1999/xlink">
    <title>m1-c</title>
    <g id="m1-c" stroke="none" stroke-width="1" fill="none" fill-rule="evenodd">
        <g id="Apple" transform="translate(35, 0)" fill="#000000" fill-rule="nonzero">
            <path d="M22.0689297,9.54615462 C21.9065141,9.67216722 19.0390373,11.2879288 19.0390373,14.8806881 C19.0390373,19.0363036 22.6877895,20.5064506 22.797,20.5428543 C22.7801984,20.6324632 22.2173441,22.5562556 20.8732143,24.5164516 C19.6746987,26.2414241 18.4229779,27.9635964 16.5187941,27.9635964 C14.6146104,27.9635964 14.1245631,26.8574857 11.9263509,26.8574857 C9.78414421,26.8574857 9.0224707,28 7.28070262,28 C5.53893453,28 4.32361725,26.4038404 2.9262824,24.4436444 C1.3077262,22.1418142 0,18.5658566 0,15.1719172 C0,9.72817282 3.53954158,6.84108411 7.02307775,6.84108411 C8.87405638,6.84108411 10.4170053,8.05640564 11.5791174,8.05640564 C12.6852242,8.05640564 14.4101906,6.76827683 16.5159939,6.76827683 C17.3140709,6.76827683 20.1815476,6.84108411 22.0689297,9.54615462 Z M15.5162974,4.46364636 C16.3871814,3.43034303 17.0032409,1.99659966 17.0032409,0.562856286 C17.0032409,0.364036404 16.9864393,0.162416242 16.9500357,5.9691559e-16 C15.533099,0.0532053205 13.8473363,0.943694369 12.8308382,2.12261226 C12.0327612,3.02990299 11.2878893,4.46364636 11.2878893,5.9169917 C11.2878893,6.13541354 11.3242928,6.35383538 11.3410945,6.42384238 C11.4307031,6.44064406 11.5763172,6.46024602 11.7219312,6.46024602 C12.9932539,6.46024602 14.5922082,5.6089609 15.5162974,4.46364636 Z" id="Shape"></path>
        </g>
    </g>
</svg>