<?xml version="1.0" encoding="UTF-8"?>
<svg width="92px" height="28px" viewBox="0 0 92 28" version="1.1" xmlns="http://www.w3.org/2000/svg" xmlns:xlink="http://www.w3.org/1999/xlink">
    <title>m1</title>
    <g id="m1" stroke="none" stroke-width="1" fill="none" fill-rule="evenodd">
        <g id="Apple" transform="translate(35, 0)" fill="#CBD5E1" fill-rule="nonzero">
            <path d="M21.2973836,9.54615462 C21.1406461,9.67216722 18.3734185,11.2879288 18.3734185,14.8806881 C18.3734185,19.0363036 21.8946075,20.5064506 22,20.5428543 C21.9837858,20.6324632 21.4406093,22.5562556 20.1434713,24.5164516 C18.9868567,26.2414241 17.7788969,27.9635964 15.9412849,27.9635964 C14.1036728,27.9635964 13.6307579,26.8574857 11.5093969,26.8574857 C9.44208328,26.8574857 8.70703845,28 7.02616386,28 C5.34528928,28 4.17246039,26.4038404 2.8239774,24.4436444 C1.26200712,22.1418142 0,18.5658566 0,15.1719172 C0,9.72817282 3.41579659,6.84108411 6.77754576,6.84108411 C8.5638128,6.84108411 10.0528191,8.05640564 11.1743029,8.05640564 C12.2417393,8.05640564 13.9063997,6.76827683 15.9385825,6.76827683 C16.7087581,6.76827683 19.4759858,6.84108411 21.2973836,9.54615462 Z M14.9738361,4.46364636 C15.8142734,3.43034303 16.408795,1.99659966 16.408795,0.562856286 C16.408795,0.364036404 16.3925808,0.162416242 16.3574499,0 C14.9900504,0.0532053205 13.3632232,0.943694369 12.3822626,2.12261226 C11.612087,3.02990299 10.8932564,4.46364636 10.8932564,5.9169917 C10.8932564,6.13541354 10.9283872,6.35383538 10.9446014,6.42384238 C11.0310773,6.44064406 11.1716005,6.46024602 11.3121238,6.46024602 C12.5390001,6.46024602 14.0820538,5.6089609 14.9738361,4.46364636 Z" id="Shape"></path>
        </g>
    </g>
</svg>