<?xml version="1.0" encoding="UTF-8"?>
<svg width="92px" height="28px" viewBox="0 0 92 28" version="1.1" xmlns="http://www.w3.org/2000/svg" xmlns:xlink="http://www.w3.org/1999/xlink">
    <title>m3</title>
    <g id="m3" stroke="none" stroke-width="1" fill="none" fill-rule="evenodd">
        <g id="Google" transform="translate(3.5806, 0)" fill="#CBD5E1" fill-rule="nonzero">
            <path d="M21.0024927,9.89031359 L11.0358017,9.89031359 L11.0358017,12.8476957 L18.1048286,12.8476957 C17.7545615,16.9872345 14.3052267,18.764052 11.0477427,18.764052 C8.96314011,18.7732108 6.96229925,17.9442841 5.4949252,16.46358 C4.02755115,14.9828759 3.21674681,12.9746154 3.24474701,10.8901714 C3.24474701,6.41310096 6.71079915,2.9661388 11.0572954,2.9661388 C14.4103068,2.9661388 16.3861316,5.10357376 16.3861316,5.10357376 L18.4558917,2.95897421 C18.4558917,2.95897421 15.7970461,1.4140958e-15 10.949031,1.4140958e-15 C4.77557344,1.4140958e-15 -1.41408944e-15,5.2102465 -1.41408944e-15,10.8376311 C-1.41408944e-15,16.3519745 4.49217551,21.7293947 11.1050591,21.7293947 C16.9218811,21.7293947 21.1800145,17.7442925 21.1800145,11.8518182 C21.1800145,10.6083644 20.9993085,9.89031359 20.9993085,9.89031359 L21.0024927,9.89031359 Z" id="Path"></path>
            <g id="A-link" transform="translate(22.1464, 7.7473)">
                <path d="M0,6.92656299 C0,10.7110568 2.84193985,13.9677594 7.06902686,13.9677594 C10.8948988,13.9677594 14.0289933,11.043812 14.0289933,7.00776164 C14.0289933,2.39058369 10.3830312,2.8281916e-15 7.02126316,2.8281916e-15 C2.93109875,0.000796065164 0,3.19858983 0,6.92656299 Z M7.06106624,2.74403662 C9.0719178,2.74403662 10.9776892,4.37039775 10.9776892,6.9902482 C10.9776892,9.55357803 9.07987842,11.226907 7.0515135,11.226907 C4.82254107,11.226907 3.07120559,9.44212891 3.07120559,6.96955051 C3.07120559,4.54951241 4.80661984,2.74403662 7.06743474,2.74403662 L7.06106624,2.74403662 Z" id="A"></path>
            </g>
            <g id="A-link" transform="translate(37.4157, 7.7473)">
                <path d="M7.02126316,0.000796065164 C2.93109875,0.000796065164 0,3.19858983 0,6.92656299 C0,10.7110568 2.84193985,13.9677594 7.06902686,13.9677594 C10.8948988,13.9677594 14.0289933,11.043812 14.0289933,7.00776164 C14.0289933,2.39058369 10.3830312,2.8281916e-15 7.02126316,2.8281916e-15 L7.02126316,0.000796065164 Z M7.06106624,2.74403662 C9.0719178,2.74403662 10.9776892,4.37039775 10.9776892,6.9902482 C10.9776892,9.55357803 9.07987842,11.226907 7.0515135,11.226907 C4.82254107,11.226907 3.07120559,9.44212891 3.07120559,6.96955051 C3.07120559,4.54951241 4.80661984,2.74403662 7.06743474,2.74403662 L7.06106624,2.74403662 Z" id="A"></path>
            </g>
            <path d="M59.4132602,7.75606289 C55.6590338,7.75606289 52.7088295,11.043812 52.7088295,14.7343701 C52.7088295,18.9375942 56.1295062,21.7254144 59.3479832,21.7254144 C61.3381371,21.7254144 62.396899,20.9349217 63.1690787,20.0282035 L63.1690787,21.4053962 C63.1690787,23.8150854 61.7059176,25.2583516 59.4976427,25.2583516 C57.3641977,25.2583516 56.2942909,23.6717937 55.9153656,22.7722401 L53.2310459,23.8867313 C54.1831356,25.9007762 56.1000519,28 59.5199325,28 C63.2614219,28 66.0969933,25.6492196 66.0969933,20.7183919 L66.0969933,8.17558923 L63.1802236,8.17558923 L63.1802236,9.35854206 C62.280674,8.38734256 61.0483707,7.75606289 59.4148523,7.75606289 L59.4132602,7.75606289 Z M59.6839211,10.4945271 C61.5244155,10.4945271 63.4142657,12.0659597 63.4142657,14.7494954 C63.4142657,17.4776107 61.5275998,18.9805817 59.643322,18.9805817 C57.6420232,18.9805817 55.7800351,17.3566088 55.7800351,14.7749694 C55.7800351,12.093822 57.7144648,10.493731 59.6839211,10.493731 L59.6839211,10.4945271 Z" id="Shape"></path>
            <path d="M79.1332977,7.73934552 C75.5924158,7.73934552 72.6191258,10.5574162 72.6191258,14.7128764 C72.6191258,19.1119324 75.9331302,21.720638 79.4652554,21.720638 C82.420236,21.720638 84.2416249,20.1046257 85.3163081,18.6557871 L82.9018533,17.0493276 C82.2753528,18.0205271 81.2277358,18.971825 79.4803806,18.971825 C77.5172927,18.971825 76.6145589,17.897137 76.0549276,16.8542916 L85.419,12.9694936 L84.9413631,11.8311205 C84.0370371,9.602138 81.9266778,7.73934552 79.1340938,7.73934552 L79.1332977,7.73934552 Z M79.2550952,10.4252694 C80.5311819,10.4252694 81.4490409,11.1035169 81.8391111,11.9170955 L75.5852513,14.5305774 C75.3145903,12.5069798 77.2330987,10.4252694 79.2471345,10.4252694 L79.2550952,10.4252694 Z" id="Shape"></path>
            <polygon id="Path" points="68.1476479 21.3066841 71.2236298 21.3066841 71.2236298 0.722827169 68.1476479 0.722827169"></polygon>
        </g>
    </g>
</svg>