<?xml version="1.0" encoding="UTF-8"?>
<svg width="92px" height="28px" viewBox="0 0 92 28" version="1.1" xmlns="http://www.w3.org/2000/svg" xmlns:xlink="http://www.w3.org/1999/xlink">
    <title>m4-c</title>
    <g id="m4-c" stroke="none" stroke-width="1" fill="none" fill-rule="evenodd">
        <g id="Amazon" transform="translate(-0, 0.2755)" fill-rule="nonzero">
            <path d="M57.0749992,21.6818054 C51.7287242,25.622498 43.9796249,27.725 37.3077946,27.725 C27.9528123,27.725 19.5309278,24.2648822 13.1594466,18.5100319 C12.6588597,18.0574908 13.1073838,17.4407589 13.708091,17.7931764 C20.5841611,21.7939402 29.0861448,24.2008059 37.8684546,24.2008059 C43.791404,24.2008059 50.3070537,22.9753449 56.2980868,20.4323191 C57.2031498,20.0478595 57.9600378,21.0250241 57.0749992,21.6818054" id="path8" fill="#FF9900"></path>
            <path d="M59.2976101,19.1387796 C58.6168084,18.2657408 54.7803057,18.7262894 53.0582846,18.9305326 C52.5336667,18.994609 52.4535753,18.5380656 52.9261273,18.2096719 C55.9817155,16.0591131 60.9956031,16.6798518 61.5802896,17.4007094 C62.164973,18.1255739 61.428111,23.1515575 58.5567383,25.5504097 C58.1162216,25.9188483 57.6957277,25.722617 57.8919603,25.2340332 C58.5367154,23.6241173 59.9824139,20.0158236 59.2976101,19.1387796" id="path10" fill="#FF9900"></path>
            <path d="M53.1784264,3.02760287 L53.1784264,0.937115137 C53.1784264,0.620738686 53.4187083,0.408486477 53.7070464,0.408486477 L63.0660308,0.408486477 C63.3663859,0.408486477 63.6066679,0.624743934 63.6066679,0.937115137 L63.6066679,2.72724588 C63.6026658,3.02760287 63.3503667,3.42006988 62.9018381,4.04080857 L58.0521463,10.9650509 C59.8542634,10.9210008 61.7564963,11.1893173 63.390414,12.1104145 C63.7588465,12.3186615 63.8589639,12.6230237 63.8869971,12.9233838 L63.8869971,15.1540384 C63.8869971,15.4584006 63.5506015,15.8148219 63.1981881,15.6306049 C60.3188066,14.1208065 56.4943179,13.9566111 53.3105806,15.6466244 C52.9862005,15.822834 52.6458012,15.4704148 52.6458012,15.1660526 L52.6458012,13.0475312 C52.6458012,12.7071263 52.6498033,12.1264325 52.9902026,11.609818 L58.6087995,3.55222781 L53.7190604,3.55222781 C53.4187083,3.55222781 53.1784264,3.33997713 53.1784264,3.02760287" id="path12" fill="#221F1F"></path>
            <path d="M19.0383468,16.0711273 L16.1910052,16.0711273 C15.9186879,16.0511056 15.7024324,15.8468624 15.682408,15.5865503 L15.682408,0.973160847 C15.682408,0.680812832 15.9266952,0.448534381 16.2310524,0.448534381 L18.8861681,0.448534381 C19.1624952,0.460540961 19.3827513,0.672800807 19.4027772,0.937115137 L19.4027772,2.84739112 L19.4548385,2.84739112 C20.1476512,1.00119148 21.4491769,0.140166899 23.2032378,0.140166899 C24.985329,0.140166899 26.0986355,1.00119148 26.8995759,2.84739112 C27.588385,1.00119148 29.1542222,0.140166899 30.8321939,0.140166899 C32.0255949,0.140166899 33.3311273,0.632752904 34.1280625,1.73806863 C35.0291203,2.96753178 34.8449033,4.75365728 34.8449033,6.31952312 L34.8409011,15.5425002 C34.8409011,15.8348482 34.596614,16.0711273 34.2922567,16.0711273 L31.4489172,16.0711273 C31.1645859,16.0511056 30.9363179,15.822834 30.9363179,15.5425002 L30.9363179,7.79728114 C30.9363179,7.1805477 30.9923813,5.64271707 30.8562234,5.05801951 C30.6439747,4.07685428 30.0072269,3.80052267 29.182257,3.80052267 C28.4934479,3.80052267 27.772602,4.26107127 27.4802588,4.99794995 C27.1879155,5.73482709 27.2159488,6.96829244 27.2159488,7.79728114 L27.2159488,15.5425002 C27.2159488,15.8348482 26.9716616,16.0711273 26.6673043,16.0711273 L23.8239679,16.0711273 C23.5356299,16.0511056 23.3113656,15.822834 23.3113656,15.5425002 L23.3073604,7.79728114 C23.3073604,6.16734201 23.5756725,3.76848527 21.5533009,3.76848527 C19.5068967,3.76848527 19.5869912,6.10726786 19.5869912,7.79728114 L19.5869912,15.5425002 C19.5869912,15.8348482 19.342704,16.0711273 19.0383468,16.0711273" id="path14" fill="#221F1F"></path>
            <path d="M71.6641266,0.140166899 C75.8890863,0.140166899 78.1757694,3.76848527 78.1757694,8.38197717 C78.1757694,12.8392812 75.6488012,16.3754895 71.6641266,16.3754895 C67.5152547,16.3754895 65.2566018,12.7471712 65.2566018,8.22579081 C65.2566018,3.67637524 67.543288,0.140166899 71.6641266,0.140166899 M71.6881531,3.12371967 C69.5896922,3.12371967 69.4575181,5.98312043 69.4575181,7.76524373 C69.4575181,9.55136923 69.4295017,13.3639061 71.6641266,13.3639061 C73.8707168,13.3639061 73.9748393,10.2882479 73.9748393,8.41401305 C73.9748393,7.1805477 73.9227781,5.70679341 73.5503388,4.53739982 C73.2299623,3.52019193 72.5932176,3.12371967 71.6881531,3.12371967" id="path16" fill="#221F1F"></path>
            <path d="M83.6542017,16.0711273 L80.8188741,16.0711273 C80.5345382,16.0511056 80.3062703,15.822834 80.3062703,15.5425002 L80.3022681,0.925100919 C80.3262962,0.65678134 80.5625745,0.448534381 80.8509126,0.448534381 L83.4900121,0.448534381 C83.7383014,0.460540961 83.9425413,0.628749183 83.9986093,0.857020858 L83.9986093,3.09167921 L84.0506675,3.09167921 C84.8476058,1.0933015 85.9649144,0.140166899 87.9312226,0.140166899 C89.2087218,0.140166899 90.4541856,0.600715498 91.255126,1.86221606 C92,3.03160812 92,4.99794995 92,6.41163009 L92,15.6105817 C91.9679631,15.8668841 91.7316848,16.0711273 91.4513586,16.0711273 L88.5960052,16.0711273 C88.3356973,16.0511056 88.1194433,15.8588766 88.0914132,15.6105817 L88.0914132,7.67313371 C88.0914132,6.07523198 88.2756287,3.73644633 86.3093189,3.73644633 C85.6165078,3.73644633 84.9797585,4.20100171 84.6633872,4.90583839 C84.2629193,5.79890343 84.210858,6.6879617 84.210858,7.67313371 L84.210858,15.5425002 C84.2068559,15.8348482 83.958562,16.0711273 83.6542048,16.0711273" id="path18" fill="#221F1F"></path>
            <g id="use28" transform="translate(37.3278, 0)" fill="#221F1F">
                <path d="M8.38984935,9.09082063 L8.38984935,8.4740872 C6.33143094,8.4740872 4.15687917,8.91461108 4.15687917,11.3414985 C4.15687917,12.5709616 4.79362541,13.4039556 5.88690906,13.4039556 C6.68784948,13.4039556 7.40469021,12.9113695 7.85722398,12.1104145 C8.41787952,11.125241 8.38984935,10.2001401 8.38984935,9.09082063 M11.261219,16.0310794 C11.0729983,16.19928 10.8006764,16.2112942 10.5884276,16.0991625 C9.64332047,15.3142285 9.47512111,14.9497952 8.95450992,14.2009038 C7.39267619,15.7948003 6.28738156,16.2713653 4.26100019,16.2713653 C1.86618779,16.2713653 0,14.7936073 0,11.8340875 C0,9.52333555 1.25347113,7.94946226 3.03556229,7.1805477 C4.58137666,6.49973487 6.73991075,6.37959422 8.38984935,6.19137044 L8.38984935,5.82293187 C8.38984935,5.14612429 8.44191062,4.3451708 8.04544483,3.76047782 C7.69703345,3.23585136 7.03225552,3.0195939 6.44756751,3.0195939 C5.36229574,3.0195939 4.39315596,3.57625625 4.15687917,4.72962884 C4.10882156,4.98593573 3.92060086,5.23823584 3.66430121,5.25025006 L0.901057775,4.95389527 C0.668784642,4.9018362 0.412483465,4.71360937 0.47655876,4.35718807 C1.11330652,1.0092035 4.13685479,0 6.84403482,0 C8.22965882,0 10.0397832,0.368438574 11.1330669,1.41768692 C12.5186953,2.71122642 12.386538,4.43728082 12.386538,6.31551788 L12.386538,10.7527987 C12.386538,12.0863876 12.9391891,12.6710806 13.4598003,13.3919413 C13.6440158,13.6482436 13.6840631,13.9566111 13.4517899,14.1488401 C12.8711086,14.6334187 11.8378966,15.5344912 11.2692263,16.0390914 L11.261219,16.0310717" id="path30"></path>
            </g>
            <path d="M8.38984935,9.09082063 L8.38984935,8.4740872 C6.33143094,8.4740872 4.15687917,8.91461108 4.15687917,11.3414985 C4.15687917,12.5709616 4.79362541,13.4039556 5.88690906,13.4039556 C6.68784948,13.4039556 7.40469021,12.9113695 7.85722398,12.1104145 C8.41787952,11.125241 8.38984935,10.2001401 8.38984935,9.09082063 M11.261219,16.0310794 C11.0729983,16.19928 10.8006764,16.2112942 10.5884276,16.0991625 C9.64332047,15.3142285 9.47512111,14.9497952 8.95450992,14.2009038 C7.39267619,15.7948003 6.28738156,16.2713653 4.26100019,16.2713653 C1.86618779,16.2713653 2.17075046e-15,14.7936073 2.17075046e-15,11.8340875 C2.17075046e-15,9.52333555 1.25347113,7.94946226 3.03556229,7.1805477 C4.58137666,6.49973487 6.73991075,6.37959422 8.38984935,6.19137044 L8.38984935,5.82293187 C8.38984935,5.14612429 8.44191062,4.3451708 8.04544483,3.76047782 C7.69703345,3.23585136 7.03225552,3.0195939 6.44756751,3.0195939 C5.36229574,3.0195939 4.39315596,3.57625625 4.15687917,4.72962884 C4.10882156,4.98593573 3.92060086,5.23823584 3.66430121,5.25025006 L0.901057775,4.95389527 C0.668784642,4.9018362 0.412483465,4.71360937 0.47655876,4.35718807 C1.11330652,1.0092035 4.13685479,0 6.84403482,0 C8.22965882,0 10.0397832,0.368438574 11.1330669,1.41768692 C12.5186953,2.71122642 12.386538,4.43728082 12.386538,6.31551788 L12.386538,10.7527987 C12.386538,12.0863876 12.9391891,12.6710806 13.4598003,13.3919413 C13.6440158,13.6482436 13.6840631,13.9566111 13.4517899,14.1488401 C12.8711086,14.6334187 11.8378966,15.5344912 11.2692263,16.0390914 L11.261219,16.0310717" id="path30" fill="#221F1F"></path>
        </g>
    </g>
</svg>