<?xml version="1.0" encoding="UTF-8"?>
<svg width="92px" height="28px" viewBox="0 0 92 28" version="1.1" xmlns="http://www.w3.org/2000/svg" xmlns:xlink="http://www.w3.org/1999/xlink">
    <title>m4</title>
    <g id="m4" stroke="none" stroke-width="1" fill="none" fill-rule="evenodd">
        <g id="m1" transform="translate(0.001, 0)" fill="#CBD5E1" fill-rule="nonzero">
            <path d="M57.071,21.897 C51.745,25.88 43.999,28 37.315,28 C27.955,28 19.561,24.508 13.17,18.7 C12.685,18.242 13.105,17.622 13.718,17.981 C20.594,22.028 29.084,24.443 37.864,24.443 C43.772,24.443 50.292,23.203 56.297,20.625 C57.2,20.265 57.943,21.245 57.071,21.897 L57.071,21.897 Z M59.299,19.32 C58.621,18.44 54.779,18.896 53.069,19.125 C52.552,19.19 52.455,18.733 52.939,18.407 C56.006,16.22 61.009,16.873 61.591,17.591 C62.171,18.309 61.429,23.4 58.556,25.815 C58.104,26.173 57.685,25.978 57.878,25.488 C58.524,23.856 59.977,20.234 59.298,19.32 L59.299,19.32 Z M53.165,3.068 L53.165,0.946 C53.165,0.62 53.391,0.424 53.682,0.424 L63.043,0.424 C63.333,0.424 63.592,0.653 63.592,0.946 L63.592,2.741 C63.592,3.035 63.334,3.427 62.882,4.079 L58.04,11.063 C59.847,11.03 61.752,11.291 63.366,12.205 C63.721,12.401 63.818,12.727 63.85,13.021 L63.85,15.273 C63.85,15.599 63.527,15.958 63.172,15.763 C60.299,14.228 56.458,14.065 53.294,15.795 C52.972,15.958 52.617,15.632 52.617,15.305 L52.617,13.152 C52.617,12.825 52.617,12.238 52.972,11.716 L58.588,3.59 L53.714,3.59 C53.424,3.59 53.165,3.361 53.165,3.068 Z M19.045,16.219 L16.204,16.219 C15.946,16.186 15.72,15.991 15.687,15.729 L15.687,0.98 C15.687,0.686 15.946,0.458 16.237,0.458 L18.883,0.458 C19.173,0.458 19.367,0.686 19.4,0.948 L19.4,2.873 L19.464,2.873 C20.142,1.012 21.466,0.13 23.209,0.13 C24.984,0.13 26.114,1.01 26.889,2.87 C27.567,1.01 29.149,0.13 30.827,0.13 C32.021,0.13 33.313,0.619 34.12,1.761 C35.024,3.001 34.83,4.796 34.83,6.395 L34.83,15.729 C34.83,16.022 34.572,16.251 34.281,16.251 L31.473,16.251 C31.183,16.218 30.956,15.99 30.956,15.729 L30.956,7.897 C30.956,7.277 31.021,5.711 30.892,5.124 C30.666,4.144 30.052,3.851 29.213,3.851 C28.535,3.851 27.793,4.308 27.503,5.058 C27.212,5.808 27.243,7.049 27.243,7.898 L27.243,15.73 C27.243,16.023 26.986,16.252 26.695,16.252 L23.855,16.252 C23.564,16.219 23.338,15.991 23.338,15.73 L23.338,7.897 C23.338,6.266 23.596,3.818 21.595,3.818 C19.561,3.818 19.625,6.168 19.625,7.898 L19.625,15.73 C19.5848445,16.0173047 19.3349756,16.2284008 19.045,16.22 L19.045,16.219 Z M71.662,0.131 C75.891,0.131 78.182,3.786 78.182,8.452 C78.182,12.956 75.665,16.545 71.662,16.545 C67.53,16.545 65.271,12.89 65.271,8.322 C65.238,3.72 67.531,0.13 71.662,0.13 L71.662,0.131 Z M71.662,3.166 C69.564,3.166 69.434975,6.07 69.434975,7.865 C69.434975,9.66 69.403,13.51 71.63,13.51 C73.825,13.51 73.954,10.41 73.954,8.517 C73.954,7.277 73.89,5.777 73.534,4.601 C73.212,3.557 72.566,3.166 71.662,3.166 L71.662,3.166 Z M83.639,16.219 L80.799,16.219 C80.509,16.186 80.282,15.958 80.282,15.697 L80.282,0.914 C80.3169445,0.636479345 80.5513074,0.427302946 80.831,0.424 L83.478,0.424 C83.736,0.424 83.93,0.62 83.994,0.848 L83.994,3.1 L84.059,3.1 C84.866,1.077 85.964,0.13 87.933,0.13 C89.192,0.13 90.451,0.587 91.258,1.86 C91.999,3.035 91.999,5.026 91.999,6.462 L91.999,15.762 C91.967,16.023 91.741,16.219 91.45,16.219 L88.61,16.219 C88.351,16.186 88.125,15.991 88.093,15.762 L88.093,7.734 C88.093,6.103 88.287,3.753 86.318,3.753 C85.64,3.753 84.994,4.21 84.671,4.928 C84.284,5.841 84.219,6.723 84.219,7.734 L84.219,15.697 C84.1835036,15.9916089 83.9357073,16.2146255 83.639,16.219 L83.639,16.219 Z M48.582,16.186 C48.3944039,16.3522096 48.1211658,16.3788472 47.905,16.252 C46.968,15.469 46.775,15.077 46.258,14.326 C44.708,15.926 43.579,16.415 41.578,16.415 C39.188,16.415 37.316,14.914 37.316,11.945 C37.316,9.595 38.576,8.028 40.351,7.245 C41.901,6.559 44.063,6.429 45.709,6.233 L45.709,5.874 C45.709,5.189 45.774,4.373 45.354,3.786 C44.999,3.263 44.354,3.035 43.773,3.035 C42.675,3.035 41.707,3.59 41.481,4.765 C41.416,5.025 41.255,5.287 40.996,5.287 L38.253,4.993 C38.027,4.928 37.768,4.765 37.833,4.406 C38.478,1.012 41.48,0 44.192,0 C45.579,0 47.387,0.359 48.485,1.436 C49.873,2.741 49.744,4.503 49.744,6.396 L49.744,10.867 C49.744,12.205 50.292,12.793 50.809,13.543 C51.003,13.804 51.035,14.131 50.809,14.293 C50.195,14.783 49.163,15.697 48.581,16.186 L48.582,16.186 Z M11.266,16.186 C11.0782178,16.3526831 10.8044036,16.3793375 10.588,16.252 C9.652,15.469 9.458,15.077 8.942,14.326 C7.392,15.926 6.262,16.415 4.262,16.415 C1.872,16.415 0,14.914 0,11.945 C0,9.595 1.259,8.028 3.034,7.245 C4.584,6.559 6.747,6.429 8.393,6.233 L8.393,5.874 C8.393,5.189 8.458,4.373 8.038,3.786 C7.683,3.263 7.038,3.035 6.456,3.035 C5.359,3.035 4.39,3.59 4.164,4.765 C4.1,5.025 3.938,5.287 3.68,5.287 L0.935,4.993 C0.709,4.928 0.451,4.765 0.515,4.406 C1.161,1.012 4.163,0 6.875,0 C8.263,0 10.071,0.359 11.168,1.436 C12.556,2.741 12.428,4.503 12.428,6.396 L12.428,10.867 C12.428,12.205 12.976,12.793 13.492,13.543 C13.686,13.804 13.718,14.131 13.492,14.293 C12.879,14.783 11.846,15.697 11.265,16.186 L11.266,16.186 Z M45.708,9.17 L45.708,8.55 C43.643,8.55 41.48,9.007 41.48,11.455 C41.48,12.695 42.125,13.543 43.223,13.543 C44.03,13.543 44.74,13.053 45.192,12.238 C45.741,11.226 45.708,10.28 45.708,9.17 Z M8.424,9.17 L8.424,8.55 C6.358,8.55 4.195,9.007 4.195,11.455 C4.195,12.695 4.841,13.543 5.939,13.543 C6.746,13.543 7.456,13.053 7.908,12.238 C8.457,11.226 8.424,10.28 8.424,9.17 Z" id="Shape"></path>
        </g>
    </g>
</svg>