<?xml version="1.0" encoding="UTF-8"?>
<svg width="92px" height="28px" viewBox="0 0 92 28" version="1.1" xmlns="http://www.w3.org/2000/svg" xmlns:xlink="http://www.w3.org/1999/xlink">
    <title>m6</title>
    <g id="m6" stroke="none" stroke-width="1" fill="none" fill-rule="evenodd">
        <g id="Tesla" transform="translate(35, 0)" fill="#CBD5E1" fill-rule="nonzero">
            <g id="Group" transform="translate(0, 25.1772)">
                <path d="M0,0.00683612716 C0.0630783717,0.252859022 0.2760844,0.504319744 0.568326807,0.567320871 L1.45157938,0.567320871 L1.49663536,0.585110338 L1.49663536,2.81392084 L2.0481827,2.81392084 L2.0481827,0.585110338 L2.09828805,0.567320871 L2.98231745,0.567320871 C3.27782253,0.491191273 3.48624528,0.252859022 3.54823609,0.00683612716 L3.54823609,0.00139829874 L0,0.00139829874 L0,0.00683612716" id="Path"></path>
                <path d="M5.45884268,2.82021319 L7.55713073,2.82021319 C7.84906241,2.76218379 8.06603026,2.5049745 8.12685583,2.25599964 L4.88911759,2.25599964 C4.94955475,2.50505219 5.16970758,2.76218379 5.45884268,2.82021319" id="Path"></path>
                <path d="M5.45884268,1.6769486 L7.55713073,1.6769486 C7.84906241,1.6193853 8.06603026,1.36209834 8.12685583,1.11281274 L4.88911759,1.11281274 C4.94955475,1.36217602 5.16970758,1.6193853 5.45884268,1.6769486" id="Path"></path>
                <path d="M5.45884268,0.564368907 L7.55713073,0.564368907 C7.84906241,0.506184143 8.06603026,0.249130225 8.12685583,0 L4.88911759,0 C4.94955475,0.249130225 5.16970758,0.506184143 5.45884268,0.564368907" id="Path"></path>
                <path d="M10.2443315,0.559008762 L12.1828262,0.559008762 C12.4750686,0.474100955 12.7204683,0.251460723 12.780284,0.00466099579 L9.70094086,0.00466099579 L9.70094086,1.66824808 L12.2212792,1.66824808 L12.2212792,2.2520378 L10.2443315,2.25359146 C9.93453281,2.33997525 9.67180984,2.54801103 9.54075909,2.82277673 L9.70094086,2.81982477 L12.7628054,2.81982477 L12.7628054,1.11514324 L10.2443315,1.11514324 L10.2443315,0.559008762" id="Path"></path>
                <path d="M16.8412261,2.82052392 C17.116456,2.70384366 17.2645193,2.50202254 17.3212277,2.26586542 L14.8729012,2.26586542 L14.8744549,0.00388416316 L14.3256265,0.00543782842 L14.3256265,2.82052392 L16.8412261,2.82052392" id="Path"></path>
                <path d="M18.9795208,0.566621721 L21.078508,0.566621721 C21.3700512,0.508670007 21.5868637,0.25138304 21.648,0.00248586442 L18.4101064,0.00248586442 C18.4706212,0.251460723 18.6906187,0.508670007 18.9795208,0.566621721" id="Path"></path>
                <polyline id="Path" points="18.4944698 1.11724069 18.4944698 2.81943635 19.0403463 2.81943635 19.0403463 1.68611523 21.027082 1.68611523 21.027082 2.81943635 21.5725701 2.81943635 21.5725701 1.12019265 18.4944698 1.11724069"></polyline>
            </g>
            <g id="Group" transform="translate(0.9745, 0)">
                <path d="M9.85063547,19.6151793 L12.6065078,4.11589233 C15.2333491,4.11589233 16.061913,4.40394187 16.1815444,5.57967806 C16.1815444,5.57967806 17.9436993,4.92263302 18.8324674,3.58818992 C15.3642445,1.98107858 11.8794752,1.90860009 11.8794752,1.90860009 L9.84605219,4.38529789 L9.85063547,4.38498715 L7.81721249,1.90821168 C7.81721249,1.90821168 4.3323655,1.98076784 0.864608716,3.58787919 C1.75259993,4.92232229 3.51545398,5.57936733 3.51545398,5.57936733 C3.63578452,4.40355345 4.46333858,4.11550391 7.0725459,4.11363952 L9.85063547,19.6151793" id="Path"></path>
                <path d="M9.84954791,1.19321492 C12.6531174,1.17177434 15.8621131,1.62692058 19.1471601,3.0587008 C19.5862228,2.26842897 19.6990958,1.91916502 19.6990958,1.91916502 C16.1080566,0.498415816 12.7450938,0.0121962723 9.8491595,0 C6.95338061,0.0121962723 3.59057318,0.4984935 -5.51968951e-16,1.91916502 C-5.51968951e-16,1.91916502 0.160181776,2.34937493 0.551547339,3.0587008 C3.8359729,1.62692058 7.04551232,1.17177434 9.8491595,1.19321492 L9.84954791,1.19321492" id="Path"></path>
            </g>
        </g>
    </g>
</svg>