<?xml version="1.0" encoding="UTF-8"?>
<svg width="92px" height="28px" viewBox="0 0 92 28" version="1.1" xmlns="http://www.w3.org/2000/svg" xmlns:xlink="http://www.w3.org/1999/xlink">
    <title>m6</title>
    <g id="m6" stroke="none" stroke-width="1" fill="none" fill-rule="evenodd">
        <g id="Tesla" transform="translate(32, 0)" fill="#CBD5E1" fill-rule="nonzero">
            <g id="Group">
                <path d="M14.003035,28 L17.9908603,6.11696602 C21.791974,6.11696602 22.9909295,6.52365556 23.1640395,8.18364643 C23.1640395,8.18364643 25.7139275,7.25598189 27,5.37191692 C21.9813833,3.10287885 16.9388235,3.00054839 16.9388235,3.00054839 L13.9964029,6.49733261 L14.003035,6.49689389 L11.0606144,3 C11.0606144,3 6.01794222,3.10244014 1,5.37147821 C2.28494842,7.25554317 4.83584813,8.18320771 4.83584813,8.18320771 C5.00996982,6.52310716 6.20746396,6.11641762 9.98306081,6.11378533 L14.003035,28" id="Path"></path>
                <path d="M14,1.56042058 C17.9849517,1.53238177 22.5461701,2.12759689 27.2154868,4 C27.839564,2.96652613 28,2.50977803 28,2.50977803 C22.8957505,0.651800681 18.1156855,0.0159496114 13.9994479,0 C9.88343113,0.0159496114 5.10358698,0.651902271 0,2.50977803 C0,2.50977803 0.22767998,3.07238279 0.783961133,4 C5.45239447,2.12759689 10.0143858,1.53238177 13.9994479,1.56042058 L14,1.56042058" id="Path"></path>
            </g>
        </g>
    </g>
</svg>