<?xml version="1.0" encoding="UTF-8"?>
<svg width="92px" height="28px" viewBox="0 0 92 28" version="1.1" xmlns="http://www.w3.org/2000/svg" xmlns:xlink="http://www.w3.org/1999/xlink">
    <title>m7</title>
    <g id="m7" stroke="none" stroke-width="1" fill="none" fill-rule="evenodd">
        <g id="Meta" transform="translate(0, 5)" fill="#CBD5E1" fill-rule="nonzero">
            <path d="M3.0142616,12.2240553 C3.0142616,13.2896327 3.24814346,14.1077399 3.55383966,14.6026802 C3.95464135,15.250955 4.55244726,15.5255983 5.16189873,15.5255983 C5.94797468,15.5255983 6.66708861,15.3305336 8.05291139,13.413853 C9.16312236,11.8775971 10.471308,9.72121005 11.351519,8.36934366 L12.8421519,6.07903162 C13.8776371,4.48842932 15.0761603,2.72023079 16.4503376,1.52169885 C17.5721941,0.543463874 18.7823629,0 20.0002954,0 C22.0450633,0 23.9927848,1.18494534 25.4834177,3.4073244 C27.1147679,5.84126618 27.9066667,8.90698471 27.9066667,12.0707208 C27.9066667,13.951494 27.5359494,15.333445 26.9051477,16.4252251 C26.2956962,17.4810978 25.1078481,18.536 23.1096624,18.536 L23.1096624,15.5255983 C24.8205907,15.5255983 25.2475949,13.953435 25.2475949,12.1541814 C25.2475949,9.59019644 24.649789,6.74477487 23.3328692,4.7116377 C22.3983122,3.26951749 21.187173,2.38832963 19.8547257,2.38832963 C18.4135865,2.38832963 17.2538819,3.47525738 15.9505485,5.41328838 C15.2576371,6.44295832 14.5462869,7.69777759 13.7475949,9.11369508 L12.8683544,10.6713014 C11.1021097,13.8030119 10.6547257,14.5163083 9.77160338,15.6934898 C8.22371308,17.7547707 6.90194093,18.536 5.16189873,18.536 C3.09772152,18.536 1.79244726,17.642196 0.984050633,16.295182 C0.324135021,15.1975791 0,13.7573998 0,12.116333 L3.0142616,12.2240553 Z" id="Logo0"></path>
            <path d="M2.37666667,3.61985759 C3.75860759,1.4896733 5.75291139,0 8.04029536,0 C9.3649789,0 10.6818987,0.392070366 12.0570464,1.51490555 C13.5612658,2.74255162 15.1644726,4.76404314 17.1645992,8.09567079 L17.8817722,9.29129131 C19.6130802,12.1755317 20.5981013,13.6593822 21.174557,14.3590919 C21.9159916,15.2577483 22.4351899,15.5255983 23.1096624,15.5255983 C24.8205907,15.5255983 25.2475949,13.953435 25.2475949,12.1541814 L27.9066667,12.0707208 C27.9066667,13.951494 27.5359494,15.333445 26.9051477,16.4252251 C26.2956962,17.4810978 25.1078481,18.536 23.1096624,18.536 C21.8674684,18.536 20.766962,18.266209 19.55,17.1181416 C18.6144726,16.2369537 17.5207595,14.6715837 16.6793671,13.2644004 L14.1765401,9.08361047 C12.9207595,6.98545173 11.7688186,5.42105215 11.1021097,4.71260817 C10.3849367,3.95078827 9.46299578,3.03078157 7.99177215,3.03078157 C6.80101266,3.03078157 5.78978903,3.86635728 4.9435443,5.14446785 L2.37666667,3.61985759 Z" id="Logo1"></path>
            <path d="M7.99177215,3.03078157 C6.80101266,3.03078157 5.78978903,3.86635728 4.9435443,5.14446785 C3.74696203,6.95051476 3.0142616,9.64066094 3.0142616,12.2240553 C3.0142616,13.2896327 3.24814346,14.1077399 3.55383966,14.6026802 L0.984050633,16.295182 C0.324135021,15.1975791 0,13.7573998 0,12.116333 C0,9.13213403 0.81907173,6.02177382 2.37666667,3.61985759 C3.75860759,1.4896733 5.75291139,0 8.04029536,0 L7.99177215,3.03078157 Z" id="Logo2"></path>
            <path d="M33.7663291,0.586164607 L37.2532068,0.586164607 L43.1817722,11.3118124 L49.111308,0.586164607 L52.5224895,0.586164607 L52.5224895,18.2099217 L49.6780591,18.2099217 L49.6780591,4.70290346 L44.4783122,14.0563049 L41.8095359,14.0563049 L36.6107595,4.70290346 L36.6107595,18.2099217 L33.7663291,18.2099217 L33.7663291,0.586164607 Z M61.4352321,7.15722513 C59.3953165,7.15722513 58.1667089,8.69251058 57.8726582,10.5936637 L64.7959494,10.5936637 C64.6532911,8.63525277 63.5236709,7.15722513 61.4352321,7.15722513 Z M55.0524895,11.6767095 C55.0524895,7.67642723 57.6378059,4.76501361 61.4847257,4.76501361 C65.2685654,4.76501361 67.5278059,7.63954932 67.5278059,11.8902132 L67.5278059,12.6714425 L57.8726582,12.6714425 C58.2152321,14.7395166 59.5874684,16.1331133 61.8001266,16.1331133 C63.5654008,16.1331133 64.6688186,15.5945018 65.7149789,14.6094735 L67.2259916,16.4601621 C65.8023207,17.7693277 63.9914346,18.5243543 61.6991983,18.5243543 C57.5349367,18.5243543 55.0524895,15.4877499 55.0524895,11.6767095 Z M70.9768354,7.40954764 L68.3585232,7.40954764 L68.3585232,5.08041675 L70.9768354,5.08041675 L70.9768354,1.22861654 L73.721308,1.22861654 L73.721308,5.08041675 L77.6992405,5.08041675 L77.6992405,7.40954764 L73.721308,7.40954764 L73.721308,13.312924 C73.721308,15.3285927 74.3656962,16.0448004 75.9494937,16.0448004 C76.6724895,16.0448004 77.0868776,15.9826903 77.6992405,15.8807908 L77.6992405,18.1846894 C76.9364557,18.400134 76.2086076,18.4991221 75.4205907,18.4991221 C72.4577637,18.4991221 70.9768354,16.8803761 70.9768354,13.6399728 L70.9768354,7.40954764 Z M89.2555274,9.67462743 C88.7043038,8.28297173 87.4747257,7.25815414 85.6677215,7.25815414 C83.3191983,7.25815414 81.8159494,8.92445319 81.8159494,11.6388612 C81.8159494,14.2853361 83.1998312,16.0321843 85.5551477,16.0321843 C87.4067932,16.0321843 88.7285654,14.9549613 89.2555274,13.6147405 L89.2555274,9.67462743 Z M92,18.2099217 L89.3059916,18.2099217 L89.3059916,16.3718492 C88.5529114,17.4539246 87.182616,18.5243543 84.9631646,18.5243543 C81.3937975,18.5243543 79.0083966,15.5362735 79.0083966,11.6388612 C79.0083966,7.70457089 81.4510549,4.76501361 85.114557,4.76501361 C86.925443,4.76501361 88.3462025,5.48898513 89.3059916,6.76709571 L89.3059916,5.08041675 L92,5.08041675 L92,18.2099217 Z" id="Text"></path>
        </g>
    </g>
</svg>