<?xml version="1.0" encoding="UTF-8"?>
<svg width="40px" height="40px" viewBox="0 0 40 40" version="1.1" xmlns="http://www.w3.org/2000/svg" xmlns:xlink="http://www.w3.org/1999/xlink">
    <title>Meta-m</title>
    <defs>
        <linearGradient x1="13.8784354%" y1="55.9338355%" x2="89.143574%" y2="58.693759%" id="linearGradient-1">
            <stop stop-color="#0064E1" offset="0%"></stop>
            <stop stop-color="#0064E1" offset="40%"></stop>
            <stop stop-color="#0073EE" offset="83%"></stop>
            <stop stop-color="#0082FB" offset="100%"></stop>
        </linearGradient>
        <linearGradient x1="54.3150272%" y1="82.782443%" x2="54.3150272%" y2="39.3067715%" id="linearGradient-2">
            <stop stop-color="#0082FB" offset="0%"></stop>
            <stop stop-color="#0064E0" offset="100%"></stop>
        </linearGradient>
    </defs>
    <g id="Meta-m" stroke="none" stroke-width="1" fill="none" fill-rule="evenodd">
        <g id="Meta" transform="translate(1.9335, 8)" fill-rule="nonzero">
            <path d="M3.9027988,15.8274346 C3.9027988,17.2071204 4.20562382,18.2663874 4.60143245,18.9072251 C5.12038155,19.7465969 5.89440733,20.102199 6.68351152,20.102199 C7.70130516,20.102199 8.63239785,19.8496335 10.4267303,17.3679581 C11.8642068,15.3788482 13.5580164,12.5868063 14.697694,10.8364398 L16.6277323,7.87099476 C17.9684555,5.81151832 19.5202767,3.52209424 21.2995307,1.97026178 C22.7520856,0.703664921 24.3189852,0 25.895937,0 C28.543457,0 31.0653234,1.53424084 32.9953617,4.41172775 C35.1075977,7.56314136 36.1329305,11.5325654 36.1329305,15.6289005 C36.1329305,18.0640838 35.652934,19.8534031 34.836186,21.2670157 C34.0470818,22.6341361 32.5090826,24 29.9218763,24 L29.9218763,20.102199 C32.1371481,20.102199 32.6900237,18.0665969 32.6900237,15.7369634 C32.6900237,12.4171728 31.9159979,8.73298429 30.2108794,6.10052356 C29.0008359,4.23329843 27.4326798,3.09235602 25.7074567,3.09235602 C23.8415017,3.09235602 22.339942,4.49968586 20.652415,7.00900524 C19.7552488,8.34219895 18.8342084,9.96691099 17.8000798,11.8002094 L16.6616587,13.8169634 C14.3747644,17.8718325 13.7955016,18.7953927 12.6520544,20.3195812 C10.6478806,22.9884817 8.93647941,24 6.68351152,24 C4.01086084,24 2.32082079,22.8427225 1.27412684,21.0986387 C0.419682807,19.6774869 0,17.8127749 0,15.6879581 L3.9027988,15.8274346 Z" id="Logo0" fill="#0081FB"></path>
            <path d="M3.07725507,4.68691099 C4.86656141,1.92879581 7.44874155,0 10.4103954,0 C12.1255661,0 13.8306846,0.507643979 15.6111952,1.96146597 C17.558825,3.55099476 19.6346214,6.16837696 22.2243407,10.4820942 L23.1529204,12.0301571 C25.3945794,15.7646073 26.6699628,17.6858639 27.4163448,18.5918325 C28.3763378,19.7553927 29.0485842,20.102199 29.9218763,20.102199 C32.1371481,20.102199 32.6900237,18.0665969 32.6900237,15.7369634 L36.1329305,15.6289005 C36.1329305,18.0640838 35.652934,19.8534031 34.836186,21.2670157 C34.0470818,22.6341361 32.5090826,24 29.9218763,24 C28.313511,24 26.8885999,23.6506806 25.3129046,22.1641885 C24.1016045,21.0232461 22.6854892,18.9964398 21.5960731,17.1744503 L18.3554684,11.7612565 C16.7295116,9.04460733 15.2380042,7.01905759 14.3747644,6.1017801 C13.4461848,5.11539267 12.2524762,3.92418848 10.3475686,3.92418848 C8.80579973,3.92418848 7.4964899,5.0060733 6.40079107,6.66094241 L3.07725507,4.68691099 Z" id="Logo1" fill="url(#linearGradient-1)"></path>
            <path d="M10.3475686,3.92418848 C8.80579973,3.92418848 7.4964899,5.0060733 6.40079107,6.66094241 C4.85148298,8.99937173 3.9027988,12.4825131 3.9027988,15.8274346 C3.9027988,17.2071204 4.20562382,18.2663874 4.60143245,18.9072251 L1.27412684,21.0986387 C0.419682807,19.6774869 0,17.8127749 0,15.6879581 C0,11.8240838 1.06051584,7.79685864 3.07725507,4.68691099 C4.86656141,1.92879581 7.44874155,0 10.4103954,0 L10.3475686,3.92418848 Z" id="Logo2" fill="url(#linearGradient-2)"></path>
        </g>
    </g>
</svg>