<?xml version="1.0" encoding="UTF-8"?>
<svg width="40px" height="40px" viewBox="0 0 40 40" version="1.1" xmlns="http://www.w3.org/2000/svg" xmlns:xlink="http://www.w3.org/1999/xlink">
    <title>Meta</title>
    <defs>
        <linearGradient x1="13.8784354%" y1="55.9338355%" x2="89.143574%" y2="58.693759%" id="linearGradient-1">
            <stop stop-color="#0064E1" offset="0%"></stop>
            <stop stop-color="#0064E1" offset="40%"></stop>
            <stop stop-color="#0073EE" offset="83%"></stop>
            <stop stop-color="#0082FB" offset="100%"></stop>
        </linearGradient>
        <linearGradient x1="54.3150272%" y1="82.782443%" x2="54.3150272%" y2="39.3067715%" id="linearGradient-2">
            <stop stop-color="#0082FB" offset="0%"></stop>
            <stop stop-color="#0064E0" offset="100%"></stop>
        </linearGradient>
    </defs>
    <g id="Meta" stroke="none" stroke-width="1" fill="none" fill-rule="evenodd">
        <g transform="translate(1.3876, 16.25)" fill-rule="nonzero">
            <path d="M1.21962462,4.9460733 C1.21962462,5.37722513 1.31425744,5.70824607 1.43794764,5.90850785 C1.60011923,6.17081152 1.84200229,6.28193717 2.08859735,6.28193717 C2.40665786,6.28193717 2.69762433,6.20301047 3.25835323,5.42748691 C3.70756462,4.80589005 4.23688013,3.93337696 4.59302937,3.38638743 L5.19616634,2.45968586 C5.61514234,1.81609948 6.10008646,1.10065445 6.65610335,0.615706806 C7.11002674,0.219895288 7.59968286,0 8.09248032,0 C8.91983031,0 9.70791358,0.479450262 10.3110505,1.37866492 C10.9711243,2.36348168 11.2915408,3.6039267 11.2915408,4.88403141 C11.2915408,5.64502618 11.1415419,6.20418848 10.8863081,6.64594241 C10.6397131,7.07316754 10.1590883,7.5 9.35058634,7.5 L9.35058634,6.28193717 C10.0428588,6.28193717 10.2156324,5.64581152 10.2156324,4.91780105 C10.2156324,3.88036649 9.97374934,2.72905759 9.44089982,1.90641361 C9.06276121,1.32290576 8.57271242,0.966361257 8.03358022,0.966361257 C7.45046929,0.966361257 6.98123187,1.40615183 6.45387969,2.19031414 C6.17351524,2.60693717 5.88569011,3.11465969 5.56252493,3.68756545 L5.20676835,4.31780105 C4.49211387,5.58494764 4.31109425,5.87356021 3.95376701,6.34986911 C3.32746267,7.18390052 2.79264981,7.5 2.08859735,7.5 C1.25339401,7.5 0.725256497,7.13835079 0.398164639,6.59332461 C0.131150877,6.14921466 0,5.56649215 0,4.90248691 L1.21962462,4.9460733 Z" id="Logo0" fill="#0081FB"></path>
            <path d="M0.96164221,1.46465969 C1.52080044,0.602748691 2.32773174,0 3.25324855,0 C3.78923941,0 4.32208894,0.158638743 4.87849849,0.612958115 C5.4871328,1.10968586 6.13581918,1.9276178 6.94510648,3.27565445 L7.23528761,3.75942408 C7.93580607,4.92643979 8.33436337,5.52683246 8.56760775,5.80994764 C8.86760556,6.17356021 9.07768257,6.28193717 9.35058634,6.28193717 C10.0428588,6.28193717 10.2156324,5.64581152 10.2156324,4.91780105 L11.2915408,4.88403141 C11.2915408,5.64502618 11.1415419,6.20418848 10.8863081,6.64594241 C10.6397131,7.07316754 10.1590883,7.5 9.35058634,7.5 C8.8479722,7.5 8.40268748,7.3908377 7.91028269,6.9263089 C7.53175142,6.5697644 7.08921538,5.93638743 6.74877283,5.36701571 L5.73608387,3.67539267 C5.22797239,2.82643979 4.76187631,2.1934555 4.49211387,1.90680628 C4.20193274,1.59856021 3.82889881,1.2263089 3.23361519,1.2263089 C2.75181242,1.2263089 2.34265309,1.56439791 2.00024721,2.0815445 L0.96164221,1.46465969 Z" id="Logo1" fill="url(#linearGradient-1)"></path>
            <path d="M3.23361519,1.2263089 C2.75181242,1.2263089 2.34265309,1.56439791 2.00024721,2.0815445 C1.51608843,2.81230366 1.21962462,3.90078534 1.21962462,4.9460733 C1.21962462,5.37722513 1.31425744,5.70824607 1.43794764,5.90850785 L0.398164639,6.59332461 C0.131150877,6.14921466 0,5.56649215 0,4.90248691 C0,3.69502618 0.331411198,2.43651832 0.96164221,1.46465969 C1.52080044,0.602748691 2.32773174,0 3.25324855,0 L3.23361519,1.2263089 Z" id="Logo2" fill="url(#linearGradient-2)"></path>
            <path d="M13.6624659,0.237172775 L15.0733195,0.237172775 L17.472124,4.57696335 L19.8713212,0.237172775 L21.2515468,0.237172775 L21.2515468,7.36806283 L20.1006389,7.36806283 L20.1006389,1.90287958 L17.9967275,5.68743455 L16.9168925,5.68743455 L14.8133738,1.90287958 L14.8133738,7.36806283 L13.6624659,7.36806283 L13.6624659,0.237172775 Z M24.8578032,2.89594241 C24.0324166,2.89594241 23.5352998,3.5171466 23.4163216,4.28638743 L26.2176101,4.28638743 C26.159888,3.49397906 25.7028232,2.89594241 24.8578032,2.89594241 Z M22.2752304,4.72460733 C22.2752304,3.10602094 23.3212961,1.92801047 24.8778293,1.92801047 C26.408839,1.92801047 27.3229685,3.09109948 27.3229685,4.81099476 L27.3229685,5.12709424 L23.4163216,5.12709424 C23.5549331,5.96387435 24.1101647,6.52774869 25.0054461,6.52774869 C25.7197079,6.52774869 26.1661707,6.30981675 26.589466,5.91125654 L27.200849,6.66007853 C26.6248061,7.18979058 25.8920889,7.49528796 24.9646087,7.49528796 C23.2796734,7.49528796 22.2752304,6.26662304 22.2752304,4.72460733 Z M28.7185081,2.99803665 L27.6590917,2.99803665 L27.6590917,2.05562827 L28.7185081,2.05562827 L28.7185081,0.497120419 L29.8289712,0.497120419 L29.8289712,2.05562827 L31.4385144,2.05562827 L31.4385144,2.99803665 L29.8289712,2.99803665 L29.8289712,5.38664921 C29.8289712,6.20222513 30.0897023,6.49201571 30.7305353,6.49201571 C31.0230724,6.49201571 31.1907414,6.46688482 31.4385144,6.42565445 L31.4385144,7.3578534 C31.129878,7.44502618 30.8353775,7.48507853 30.5165316,7.48507853 C29.3177184,7.48507853 28.7185081,6.83010471 28.7185081,5.51897906 L28.7185081,2.99803665 Z M36.1143966,3.9145288 C35.8913616,3.35143979 35.3938521,2.9367801 34.6627056,2.9367801 C33.7124508,2.9367801 33.1042091,3.61099476 33.1042091,4.70929319 C33.1042091,5.78010471 33.6641527,6.48691099 34.6171562,6.48691099 C35.3663654,6.48691099 35.9011783,6.05104712 36.1143966,5.50876963 L36.1143966,3.9145288 Z M37.2248597,7.36806283 L36.1348153,7.36806283 L36.1348153,6.62434555 C35.8301055,7.06217277 35.2756593,7.49528796 34.3776292,7.49528796 C32.9333988,7.49528796 31.9682226,6.28625654 31.9682226,4.70929319 C31.9682226,3.11740838 32.9565662,1.92801047 34.4388853,1.92801047 C35.1716024,1.92801047 35.7464674,2.22094241 36.1348153,2.73808901 L36.1348153,2.05562827 L37.2248597,2.05562827 L37.2248597,7.36806283 Z" id="Text" fill="#192830"></path>
        </g>
    </g>
</svg>