<?xml version="1.0" encoding="UTF-8"?>
<svg width="40px" height="40px" viewBox="0 0 40 40" version="1.1" xmlns="http://www.w3.org/2000/svg" xmlns:xlink="http://www.w3.org/1999/xlink">
    <title>Nvidia</title>
    <g id="Nvidia" stroke="none" stroke-width="1" fill="none" fill-rule="evenodd">
        <g transform="translate(0.9865, 6)" fill-rule="nonzero">
            <path d="M37.7615922,27.1140754 C37.7615922,27.5220898 37.461994,27.7959387 37.1073235,27.7959387 L37.1073235,27.7934502 C36.7425906,27.7959387 36.4485105,27.5220898 36.4485105,27.1141836 C36.4485105,26.7063856 36.7425906,26.433294 37.1073235,26.433294 C37.4621022,26.4331858 37.7615922,26.7062774 37.7615922,27.1140754 Z M38.027,27.1140754 C38.027,26.5541511 37.5920471,26.2291246 37.1073235,26.2291246 C36.6192458,26.2291246 36.1842929,26.5541511 36.1842929,27.1140754 C36.1842929,27.6736751 36.619354,28 37.1073235,28 C37.5921553,28 38.027,27.6736751 38.027,27.1140754 M36.9547654,27.1889484 L37.0532249,27.1889484 L37.2814129,27.5896053 L37.5319977,27.5896053 L37.2792489,27.1720695 C37.409843,27.1627645 37.5172828,27.1005507 37.5172828,26.924729 C37.5172828,26.7062774 37.3666723,26.636057 37.1115432,26.636057 L36.7424824,26.636057 L36.7424824,27.5896053 L36.9546572,27.5896053 L36.9546572,27.1889484 M36.9547654,27.0275171 L36.9547654,26.7979211 L37.1023464,26.7979211 C37.1826288,26.7979211 37.2920162,26.8044129 37.2920162,26.9023321 C37.2920162,27.008907 37.235429,27.0275171 37.1407565,27.0275171 L36.9547654,27.0275171" id="path17" fill="#000000"></path>
            <path d="M31.8335739,22.2362965 L32.9802482,25.373279 L30.6514109,25.373279 L31.8335739,22.2362965 Z M30.6055353,21.0148502 L27.9630342,27.7101378 L29.8290037,27.7101378 L30.2469697,26.5271016 L33.3741943,26.5271016 L33.7697634,27.7101378 L35.795432,27.7101378 L33.1332391,21.0139846 L30.6055353,21.0148502 Z M25.3003003,27.7126263 L27.1934273,27.7126263 L27.1934273,21.0127944 L25.2999757,21.0123616 L25.3003003,27.7126263 Z M12.1579068,21.0123616 L10.5784436,26.3224994 L9.06541348,21.0127944 L7.02275789,21.0123616 L9.18367306,27.7126263 L11.9110007,27.7126263 L14.0893357,21.0123616 L12.1579068,21.0123616 L12.1579068,21.0123616 Z M19.8101562,22.4713024 L20.6237994,22.4713024 C21.8042313,22.4713024 22.567671,23.0012559 22.567671,24.3765597 C22.567671,25.7521881 21.8042313,26.2822497 20.6237994,26.2822497 L19.8101562,26.2822497 L19.8101562,22.4713024 Z M17.9329342,21.0123616 L17.9329342,27.7126263 L21.002057,27.7126263 C22.6372418,27.7126263 23.1711951,27.4408331 23.7485356,26.8310296 C24.1563309,26.4028904 24.4201158,25.4632997 24.4201158,24.4361767 C24.4201158,23.4940974 24.1969049,22.6543733 23.8077195,22.1311282 C23.1064932,21.1953243 22.0963638,21.0123616 20.5888517,21.0123616 L17.9329342,21.0123616 L17.9329342,21.0123616 Z M0,21.0030566 L0,27.7126263 L1.9091402,27.7126263 L1.9091402,22.6180188 L3.38841279,22.6184516 C3.87822167,22.6184516 4.22737414,22.7404989 4.46324412,22.9924918 C4.76240947,23.3111347 4.88456415,23.8255077 4.88456415,24.7663968 L4.88456415,27.7126263 L6.73452046,27.7126263 L6.73452046,24.005549 C6.73452046,21.3597851 5.04815837,21.0030566 3.39815054,21.0030566 L0,21.0030566 L0,21.0030566 Z M14.8861001,21.0123616 L14.8868575,27.7126263 L16.7791189,27.7126263 L16.7791189,21.0123616 L14.8861001,21.0123616 L14.8861001,21.0123616 Z" id="path19" fill="#000000"></path>
            <path d="M5.08775855,7.67144927 C5.08775855,7.67144927 7.52262912,4.07895357 12.3842554,3.7072937 L12.3842554,2.4039415 C6.99938729,2.8364086 2.33630288,7.39716753 2.33630288,7.39716753 C2.33630288,7.39716753 4.97739737,15.0321541 12.3842554,15.7312209 L12.3842554,14.3458547 C6.94875098,13.6620438 5.08775855,7.67144927 5.08775855,7.67144927 Z M12.3842554,11.5907027 L12.3842554,12.8594316 C8.27622285,12.1270398 7.1359322,7.85668412 7.1359322,7.85668412 C7.1359322,7.85668412 9.10836778,5.67162703 12.3842554,5.31727882 L12.3842554,6.70946152 C12.3817669,6.70946152 12.3800358,6.70870414 12.37798,6.70870414 C10.6586178,6.50237069 9.31545729,8.10856889 9.31545729,8.10856889 C9.31545729,8.10856889 10.0682936,10.8125432 12.3842554,11.5907027 M12.3842554,0 L12.3842554,2.4039415 C12.5423316,2.39182333 12.7004078,2.38154453 12.8593495,2.37613463 C18.9813654,2.16980119 22.9702729,7.39716753 22.9702729,7.39716753 C22.9702729,7.39716753 18.3888774,12.9680623 13.6158646,12.9680623 C13.1784231,12.9680623 12.7688966,12.9274881 12.3842554,12.8593234 L12.3842554,14.3458547 C12.713175,14.3876191 13.0542127,14.41218 13.4100734,14.41218 C17.8516781,14.41218 21.0637294,12.1438105 24.1739671,9.45909539 C24.6896351,9.87208687 26.8007796,10.8768128 27.2347587,11.3166374 C24.2775118,13.7925305 17.3854562,15.7883494 13.4781295,15.7883494 C13.1014949,15.7883494 12.7397916,15.7655196 12.3842554,15.7312209 L12.3842554,17.82009 L29.2664863,17.82009 L29.2664863,0 L12.3842554,0 Z M12.3842554,5.31727882 L12.3842554,3.7074019 C12.5407086,3.69647391 12.698352,3.68803447 12.8593495,3.68294917 C17.2616786,3.54467222 20.1498956,7.46608961 20.1498956,7.46608961 C20.1498956,7.46608961 17.0303529,11.7986591 13.6855436,11.7986591 C13.2041741,11.7986591 12.7725753,11.7212976 12.3841473,11.5907027 L12.3841473,6.70946152 C14.0979914,6.91655235 14.4429242,7.67361323 15.4732865,9.39125529 L17.7649039,7.45894855 C17.7649039,7.45894855 16.0920665,5.26501922 13.272122,5.26501922 C12.9655992,5.26491103 12.6722765,5.28644241 12.3842554,5.31727882" id="path21" fill="#77B900"></path>
        </g>
    </g>
</svg>