<?xml version="1.0" encoding="UTF-8"?>
<svg width="40px" height="40px" viewBox="0 0 40 40" version="1.1" xmlns="http://www.w3.org/2000/svg" xmlns:xlink="http://www.w3.org/1999/xlink">
    <title>Nvidia-n</title>
    <g id="Nvidia-n" stroke="none" stroke-width="1" fill="none" fill-rule="evenodd">
        <g id="Nvidia" transform="translate(1.8653, 8)" fill="#77B900" fill-rule="nonzero">
            <path d="M3.70564548,10.331866 C3.70564548,10.331866 6.98491586,5.49351241 13.5325277,4.99296292 L13.5325277,3.23761529 C6.28021663,3.82005962 0,9.96246486 0,9.96246486 C0,9.96246486 3.55701165,20.2452231 13.5325277,21.1867224 L13.5325277,19.3209188 C6.21201993,18.399966 3.70564548,10.331866 3.70564548,10.331866 Z M13.5325277,15.6102951 L13.5325277,17.3190123 C7.9998518,16.332631 6.46411457,10.5813393 6.46411457,10.5813393 C6.46411457,10.5813393 9.12058005,7.63851632 13.5325277,7.1612821 L13.5325277,9.03626616 C13.5291761,9.03626616 13.5268446,9.03524612 13.5240759,9.03524612 C11.2084483,8.75735736 9.39948706,10.9205763 9.39948706,10.9205763 C9.39948706,10.9205763 10.413403,14.5622742 13.5325277,15.6102951 M13.5325277,0 L13.5325277,3.23761529 C13.7454238,3.2212946 13.9583199,3.20745117 14.1723818,3.20016515 C22.4174794,2.9222764 27.7897181,9.96246486 27.7897181,9.96246486 C27.7897181,9.96246486 21.6195197,17.4653155 15.1912521,17.4653155 C14.6021084,17.4653155 14.0505603,17.4106704 13.5325277,17.3188665 L13.5325277,19.3209188 C13.9755148,19.3771668 14.4348225,19.4102454 14.9140937,19.4102454 C20.8960227,19.4102454 25.2219958,16.3552177 29.410847,12.739458 C30.1053458,13.2956727 32.9486237,14.6488321 33.5331043,15.2411854 C29.5503005,18.5757048 20.2681176,21.2636628 15.0057513,21.2636628 C14.4985019,21.2636628 14.0113618,21.2329158 13.5325277,21.1867224 L13.5325277,24 L36.2694241,24 L36.2694241,0 L13.5325277,0 Z M13.5325277,7.1612821 L13.5325277,4.99310864 C13.743238,4.97839088 13.9555512,4.96702469 14.1723818,4.96017584 C20.1014145,4.7739452 23.9912494,10.0552887 23.9912494,10.0552887 C23.9912494,10.0552887 19.7898664,15.8903697 15.2850954,15.8903697 C14.6367896,15.8903697 14.0555148,15.7861796 13.532382,15.6102951 L13.532382,9.03626616 C15.840578,9.31517496 16.3051316,10.3347804 17.6928178,12.6480914 L20.7791557,10.0456712 C20.7791557,10.0456712 18.5261873,7.09089916 14.7283014,7.09089916 C14.3154783,7.09075344 13.9204328,7.11975179 13.5325277,7.1612821" id="path21"></path>
        </g>
    </g>
</svg>