<?xml version="1.0" encoding="UTF-8"?>
<svg width="40px" height="40px" viewBox="0 0 40 40" version="1.1" xmlns="http://www.w3.org/2000/svg" xmlns:xlink="http://www.w3.org/1999/xlink">
    <title>S&amp;P</title>
    <defs>
        <rect id="path-1" x="0" y="0" width="36.3157653" height="31"></rect>
        <rect id="path-3" x="0" y="0" width="95.3846154" height="20.7032308"></rect>
        <rect id="path-5" x="0" y="0" width="95.3846154" height="20.7032308"></rect>
        <rect id="path-7" x="0" y="0" width="95.3846154" height="20.7032308"></rect>
        <rect id="path-9" x="0" y="0" width="95.3846154" height="20.7032308"></rect>
        <rect id="path-11" x="0" y="0" width="95.3846154" height="20.7032308"></rect>
        <rect id="path-13" x="0" y="0" width="95.3846154" height="20.7032308"></rect>
        <rect id="path-15" x="0" y="0" width="95.3846154" height="20.7032308"></rect>
        <rect id="path-17" x="0" y="0" width="95.3846154" height="20.7032308"></rect>
        <rect id="path-19" x="0" y="0" width="95.3846154" height="20.7032308"></rect>
        <rect id="path-21" x="0" y="0" width="95.3846154" height="20.7032308"></rect>
    </defs>
    <g id="S&amp;P" stroke="none" stroke-width="1" fill="none" fill-rule="evenodd">
        <g transform="translate(1.8421, 4.5)">
            <mask id="mask-2" fill="white">
                <use xlink:href="#path-1"></use>
            </mask>
            <use id="Mask" fill-opacity="0" fill="#D8D8D8" xlink:href="#path-1"></use>
            <g mask="url(#mask-2)" id="Clipped">
                <g transform="translate(0, 4.7692)">
                    <g>
                        <mask id="mask-4" fill="white">
                            <use xlink:href="#path-3"></use>
                        </mask>
                        <g id="SVGID_1_"></g>
                        <path d="M10.8666986,16.3109408 C10.8666986,16.9480489 10.7616694,17.4947377 10.5516109,17.9530939 C10.3415525,18.41145 10.0709805,18.8065127 9.73989506,19.1375863 C9.21822675,19.659236 8.58457365,20.0320416 7.83963131,20.2539165 C7.09468897,20.4764871 6.3024487,20.5877723 5.46221495,20.5877723 C4.73605266,20.5877723 4.02032375,20.4827469 3.31363708,20.2726959 C2.60695042,20.062645 1.97329731,19.7030545 1.41337333,19.1939245 C1.00577649,18.8245965 0.66843099,18.3690225 0.401336817,17.8285935 C0.133547086,17.2881645 0,16.6927884 0,16.0438562 L2.52139681,16.0438562 C2.52139681,16.3756254 2.5874748,16.6837464 2.72171744,16.9696104 C2.85526453,17.25617 3.0235895,17.5016931 3.22808348,17.7047887 C3.52021773,17.9989991 3.87356106,18.1916617 4.28741792,18.2883407 C4.70127478,18.3836287 5.10539383,18.430925 5.50047062,18.430925 C5.97136321,18.430925 6.41721573,18.3773689 6.8373326,18.2688658 C7.25744948,18.1610582 7.59479498,17.9732643 7.84936912,17.7047887 C8.00239182,17.5406429 8.12898333,17.3653686 8.23123032,17.1796614 C8.33347731,16.9953452 8.38355746,16.737998 8.38355746,16.4069244 C8.38355746,15.9110094 8.22218807,15.5382038 7.8973626,15.2898986 C7.57253714,15.0422889 7.20041374,14.8795342 6.77960131,14.8030256 C6.32122876,14.7139974 5.81834051,14.6500084 5.27093657,14.6124496 C4.72353263,14.5748908 4.2269044,14.5157705 3.78174744,14.4392619 C3.31015929,14.3627533 2.86778457,14.229211 2.45462327,14.038635 C2.04076641,13.8473635 1.67768527,13.5962761 1.36537985,13.2839819 C1.05376998,12.9723832 0.805455865,12.5967954 0.621133064,12.1572187 C0.436114704,11.7183374 0.343605525,11.2189448 0.343605525,10.6583454 C0.343605525,10.1234806 0.452112532,9.63382548 0.66843099,9.18798893 C0.884749448,8.74215237 1.17131924,8.34152545 1.52814036,7.9847171 C1.97329731,7.53888055 2.54643689,7.18902752 3.24686354,6.9344625 C3.94729019,6.67989748 4.69849255,6.55261497 5.50047062,6.55261497 C6.22593735,6.55261497 6.92288621,6.66390022 7.5913172,6.88647073 C8.25974819,7.10973678 8.82384551,7.43733275 9.28152251,7.86995418 C9.68911935,8.25180171 10.016727,8.68511868 10.2650412,9.16851401 C10.5133553,9.65260487 10.6434246,10.1805143 10.6566402,10.7536334 L8.13593891,10.7536334 C8.12272331,10.5122835 8.06220979,10.2730202 7.95439834,10.0379301 C7.84589133,9.80214443 7.70886645,9.59557118 7.54401927,9.41681924 C7.32700525,9.18798893 7.0216554,9.00993252 6.62727417,8.88195448 C6.23219737,8.7553675 5.85033617,8.69137848 5.48099501,8.69137848 C5.09913381,8.69137848 4.7075348,8.74215237 4.30689354,8.84370017 C3.90555672,8.9459435 3.56473343,9.14347483 3.28511922,9.43629416 C3.14461655,9.58861585 3.03332731,9.75415267 2.95055594,9.93290461 C2.86778457,10.110961 2.82674666,10.3272717 2.82674666,10.5818368 C2.82674666,11.0276733 2.95403373,11.3677889 3.20860786,11.6035745 C3.463182,11.8393601 3.79426748,11.9888997 4.20186432,12.0521932 C4.63450123,12.1168778 5.12139165,12.1739114 5.66253558,12.2239898 C6.2036795,12.2754592 6.69682994,12.3324929 7.14268245,12.3957864 C7.65183072,12.472295 8.13246112,12.6100105 8.58457365,12.8068463 C9.03668618,13.0043777 9.43106742,13.2652025 9.76910849,13.5893208 C10.1057584,13.9148302 10.3735482,14.3057196 10.5710866,14.7640758 C10.7672338,15.2224319 10.8666986,15.7378218 10.8666986,16.3109408" id="Path" fill="#D6002A" fill-rule="nonzero" mask="url(#mask-4)"></path>
                    </g>
                    <g>
                        <mask id="mask-6" fill="white">
                            <use xlink:href="#path-5"></use>
                        </mask>
                        <g id="SVGID_1_"></g>
                        <path d="M21.5282077,20.3596375 L20.5739024,19.289908 C20.0258029,19.7739989 19.4241455,20.1301117 18.7689301,20.3596375 C18.1130192,20.5884678 17.4348504,20.7032308 16.7344237,20.7032308 C16.1362441,20.7032308 15.5631045,20.6079428 15.0157005,20.4166712 C14.4682966,20.2267908 13.991144,19.955533 13.5835471,19.6049844 C13.1766459,19.2551314 12.8518204,18.8252921 12.6097663,18.316162 C12.3677122,17.807032 12.2466852,17.2332174 12.2466852,16.5968048 C12.2466852,15.7566012 12.4664814,15.0381157 12.9060739,14.4385664 C13.3449708,13.8404082 13.9278482,13.3187585 14.6533149,12.872922 C14.4363009,12.6433961 14.2394581,12.4180435 14.0613953,12.1940819 C13.882637,11.9722069 13.7303098,11.7454632 13.6030228,11.5159374 C13.4750401,11.2871071 13.3769665,11.0450616 13.3067152,10.7904966 C13.2371594,10.5359316 13.2016859,10.2493721 13.2016859,9.93151354 C13.2016859,9.39664878 13.3004551,8.91881772 13.4979935,8.49871588 C13.6948364,8.07861404 13.9591483,7.71902355 14.2902338,7.41994443 C14.6213193,7.1208653 15.0129183,6.89481713 15.4650308,6.7417999 C15.9164478,6.58947821 16.3970782,6.51296959 16.906922,6.51296959 C17.4035503,6.51296959 17.8772251,6.58600054 18.3293376,6.73275797 C18.7814501,6.87881987 19.1793092,7.09513059 19.5236103,7.38169012 C19.8672158,7.66824966 20.14057,8.01879821 20.3443684,8.43194472 C20.5481668,8.84578677 20.6504138,9.32014017 20.6504138,9.85500493 C20.6504138,10.3008415 20.5864225,10.6979907 20.4584399,11.0485393 C20.3318484,11.3983923 20.15309,11.7169464 19.9242515,12.0035059 C19.695413,12.2893699 19.4241455,12.5536724 19.1125356,12.7957178 C18.8002302,13.0384588 18.4601025,13.2665936 18.0907613,13.4829043 L20.4396598,16.0424652 C20.5544268,15.8261544 20.6337204,15.5743715 20.6782361,15.287812 C20.7227518,15.0012525 20.7575297,14.6993912 20.7832653,14.3808372 C20.809001,14.0754983 20.8222166,13.7764191 20.8222166,13.4829043 L20.8222166,12.7212958 L24.3166987,12.7212958 L24.3166987,14.6117541 L22.7509982,14.6117541 C22.724567,15.1466188 22.6550112,15.6745283 22.5409397,16.1961779 C22.4261727,16.7192186 22.2223743,17.2019184 21.9295445,17.6484505 L24.4307701,20.3596375 L21.5282077,20.3596375 Z M16.0472127,14.3627533 C15.8183742,14.503251 15.6083157,14.6374888 15.4170374,14.7640758 C15.2264545,14.8913583 15.0567384,15.0388113 14.9106713,15.2036525 C14.7646042,15.3691894 14.6498372,15.5562877 14.5670658,15.7670341 C14.4842944,15.9777806 14.4432565,16.2219126 14.4432565,16.5029079 C14.4432565,16.8465011 14.5100301,17.15184 14.6435771,17.4196202 C14.7778198,17.6867048 14.9558826,17.9092753 15.178461,18.0880273 C15.4010395,18.2660837 15.6583959,18.3989304 15.9519213,18.4886542 C16.2447511,18.5776824 16.5501009,18.621501 16.8686664,18.621501 C17.2755676,18.621501 17.6831645,18.5644673 18.0907613,18.4497043 C18.4983581,18.3349414 18.8482237,18.1130664 19.1410535,17.7812973 L16.0472127,14.3627533 Z M18.4155868,9.951684 C18.4155868,9.48080826 18.2723019,9.11774011 17.9857321,8.86317509 C17.6998579,8.60861007 17.3395589,8.48132755 16.906922,8.48132755 C16.5125408,8.48132755 16.1619797,8.59887261 15.8566298,8.83465824 C15.55128,9.07044388 15.3982573,9.42377456 15.3982573,9.8946503 C15.3982573,10.110961 15.4392952,10.3147521 15.5220666,10.5053281 C15.6048379,10.6965997 15.7063894,10.8781338 15.828112,11.0499304 C15.9484435,11.221727 16.0854683,11.3830906 16.238491,11.5368034 C16.3908182,11.6891251 16.5375809,11.8358825 16.6780835,11.9756846 C16.8811864,11.8616172 17.087767,11.7433766 17.298521,11.6223539 C17.5078839,11.5020267 17.6956845,11.3650067 17.8612273,11.211294 C18.02677,11.0582768 18.1603171,10.8802203 18.2625641,10.6764292 C18.3648111,10.4740292 18.4155868,10.2319837 18.4155868,9.951684" id="Shape" fill="#D6002A" fill-rule="nonzero" mask="url(#mask-6)"></path>
                    </g>
                    <g>
                        <mask id="mask-8" fill="white">
                            <use xlink:href="#path-7"></use>
                        </mask>
                        <g id="SVGID_1_"></g>
                        <path d="M36.3157653,11.1354809 C36.3157653,11.7851086 36.2142138,12.3763115 36.0104154,12.9118718 C35.806617,13.4467366 35.5040494,13.9050927 35.1027126,14.2869402 C34.7020713,14.6687878 34.2026608,14.9657803 33.6037856,15.1751357 C33.005606,15.3851866 32.3176994,15.4902121 31.5414569,15.4902121 L28.6771501,15.4902121 L28.6771501,20.3408582 L26.2322647,20.3408582 L26.2322647,6.80092019 L31.5414569,6.80092019 C32.3176994,6.80092019 33.005606,6.90594565 33.6037856,7.11599657 C34.2026608,7.32604749 34.7020713,7.61886682 35.1027126,7.99445456 C35.5040494,8.3700423 35.806617,8.82492078 36.0104154,9.35978554 C36.2142138,9.8946503 36.3157653,10.4865488 36.3157653,11.1354809 M33.8340152,11.1549558 C33.8340152,10.5053281 33.6427369,9.97741871 33.2608757,9.56983646 C32.8790145,9.16294975 32.2738792,8.95915862 31.4468611,8.95915862 L28.6778457,8.95915862 L28.6778457,13.3319736 L31.4468611,13.3319736 C32.2738792,13.3319736 32.8790145,13.1316602 33.2608757,12.7303377 C33.6420413,12.3297108 33.8340152,11.8045835 33.8340152,11.1549558" id="Shape" fill="#D6002A" fill-rule="nonzero" mask="url(#mask-8)"></path>
                    </g>
                    <g>
                        <mask id="mask-10" fill="white">
                            <use xlink:href="#path-9"></use>
                        </mask>
                        <g id="SVGID_1_"></g>
                    </g>
                    <g>
                        <mask id="mask-12" fill="white">
                            <use xlink:href="#path-11"></use>
                        </mask>
                        <g id="SVGID_1_"></g>
                    </g>
                    <g>
                        <mask id="mask-14" fill="white">
                            <use xlink:href="#path-13"></use>
                        </mask>
                        <g id="SVGID_1_"></g>
                    </g>
                    <g>
                        <mask id="mask-16" fill="white">
                            <use xlink:href="#path-15"></use>
                        </mask>
                        <g id="SVGID_1_"></g>
                    </g>
                    <g>
                        <mask id="mask-18" fill="white">
                            <use xlink:href="#path-17"></use>
                        </mask>
                        <g id="SVGID_1_"></g>
                    </g>
                    <g>
                        <mask id="mask-20" fill="white">
                            <use xlink:href="#path-19"></use>
                        </mask>
                        <g id="SVGID_1_"></g>
                    </g>
                    <g>
                        <mask id="mask-22" fill="white">
                            <use xlink:href="#path-21"></use>
                        </mask>
                        <g id="SVGID_1_"></g>
                        <rect id="Rectangle" fill="#000000" fill-rule="nonzero" mask="url(#mask-22)" x="0" y="0" width="95.3846154" height="2.1978838"></rect>
                    </g>
                </g>
            </g>
        </g>
    </g>
</svg>