<?xml version="1.0" encoding="UTF-8"?>
<svg width="40px" height="40px" viewBox="0 0 40 40" version="1.1" xmlns="http://www.w3.org/2000/svg" xmlns:xlink="http://www.w3.org/1999/xlink">
    <title>Tesla-T</title>
    <g id="Tesla-T" stroke="none" stroke-width="1" fill="none" fill-rule="evenodd">
        <g id="Tesla" transform="translate(3.4294, 4.5)" fill="#E82127" fill-rule="nonzero">
            <g id="Group">
                <path d="M16.572419,33 L21.2088174,6.92445604 C25.6281379,6.92445604 27.0220894,7.40906211 27.2233538,9.38708604 C27.2233538,9.38708604 30.1879513,8.28169282 31.6831885,6.03666506 C25.8483524,3.33290825 19.9856792,3.21097259 19.9856792,3.21097259 L16.5647082,7.37769602 L16.572419,7.37717325 L13.1514481,3.21031913 C13.1514481,3.21031913 7.28864414,3.33238549 1.45459224,6.03614229 C2.94852251,8.28117005 5.91429625,9.38656327 5.91429625,9.38656327 C6.1167368,7.40840865 7.50898938,6.92380258 11.8986429,6.92066597 L16.572419,33" id="Path"></path>
                <path d="M16.5705893,2.00742964 C21.2872321,1.97135864 26.6859519,2.73708327 32.2126182,5.14586815 C32.9512845,3.81633809 33.1411787,3.2287467 33.1411787,3.2287467 C27.09972,0.838520091 21.4419704,0.0205186494 16.5699359,0 C11.6981628,0.0205186494 6.04067457,0.838650783 0,3.2287467 C0,3.2287467 0.269485103,3.95251919 0.927907,5.14586815 C6.45352784,2.73708327 11.8531624,1.97135864 16.5699359,2.00742964 L16.5705893,2.00742964" id="Path"></path>
            </g>
        </g>
    </g>
</svg>